<svg xmlns="http://www.w3.org/2000/svg" id="export" class="canvas" preserveAspectRatio="xMidYMid meet" style="position: static; margin: auto; width: 327px; height: 815px;" viewBox="0 0 140 628" width="140" height="628"><rect id="background" fill="#fff" pointer-events="all" width="140" height="628"/><g id="clusters" class="clusters"/><g id="edge-paths" class="edge-paths"><defs><marker id="arrowhead-vee" viewBox="0 0 10 10" refX="9" refY="5" markerUnits="strokeWidth" markerWidth="8" markerHeight="6" orient="auto" style="fill: rgb(0, 0, 0);"><path d="M 0 0 L 10 5 L 0 10 L 4 5 z" style="stroke-width: 1px;"/></marker><marker id="arrowhead-vee-select" viewBox="0 0 10 10" refX="9" refY="5" markerUnits="strokeWidth" markerWidth="8" markerHeight="6" orient="auto" style="fill: rgb(238, 0, 0);"><path d="M 0 0 L 10 5 L 0 10 L 4 5 z" style="stroke-width: 1px;"/></marker></defs><path id="edge-env" class="edge-path" d="M50,20.31999969482422L50,23.75333301226298C50,27.18666632970174,50,34.05333296457926,50,40.91999959945679C50,47.78666623433431,50,54.65333286921183,50,58.086666186650596L50,61.519999504089355" style="stroke: rgb(0, 0, 0); stroke-width: 1px; fill: none; marker-end: url(&quot;#arrowhead-vee&quot;);"/><path id="edge-conv1_act" class="edge-path" d="M50,118.47999858856201L50,120.14666525522868C50,121.81333192189534,50,125.14666525522868,50,128.479998588562C50,131.81333192189535,50,135.14666525522867,50,136.81333192189535L50,138.479998588562" style="stroke: rgb(0, 0, 0); stroke-width: 1px; fill: none; marker-end: url(&quot;#arrowhead-vee&quot;);"/><path id="edge-conv1_act_scaling" class="edge-path" d="M50,158.79999828338623L50,160.4666649500529C50,162.13333161671957,50,165.4666649500529,50,168.79999828338623C50,172.13333161671957,50,175.4666649500529,50,177.13333161671957L50,178.79999828338623" style="stroke: rgb(0, 0, 0); stroke-width: 1px; fill: none; marker-end: url(&quot;#arrowhead-vee&quot;);"/><path id="edge-conv1_act_scaling_clip" class="edge-path" d="M50,220.43999767303467L50,222.10666433970133C50,223.773331006368,50,227.10666433970133,50,230.43999767303467C50,233.773331006368,50,237.10666433970133,50,238.773331006368L50,240.43999767303467" style="stroke: rgb(0, 0, 0); stroke-width: 1px; fill: none; marker-end: url(&quot;#arrowhead-vee&quot;);"/><path id="edge-conv1" class="edge-path" d="M50,297.3999967575073L50,299.066663424174C50,300.73333009084064,50,304.066663424174,50,307.3999967575073C50,310.73333009084064,50,314.066663424174,50,315.73333009084064L50,317.3999967575073" style="stroke: rgb(0, 0, 0); stroke-width: 1px; fill: none; marker-end: url(&quot;#arrowhead-vee&quot;);"/><path id="edge-fc1_act" class="edge-path" d="M50,374.35999584198L50,376.02666250864667C50,377.6933291753133,50,381.02666250864667,50,384.35999584198C50,387.6933291753133,50,391.02666250864667,50,392.6933291753133L50,394.35999584198" style="stroke: rgb(0, 0, 0); stroke-width: 1px; fill: none; marker-end: url(&quot;#arrowhead-vee&quot;);"/><path id="edge-fc1_act_clip" class="edge-path" d="M50,435.9999952316284L50,437.6666618982951C50,439.33332856496173,50,442.6666618982951,50,445.9999952316284C50,449.33332856496173,50,452.6666618982951,50,454.33332856496173L50,455.9999952316284" style="stroke: rgb(0, 0, 0); stroke-width: 1px; fill: none; marker-end: url(&quot;#arrowhead-vee&quot;);"/><path id="edge-fc1" class="edge-path" d="M50,512.9599943161011L50,514.6266609827677C50,516.2933276494344,50,519.6266609827677,50,522.9599943161011C50,526.2933276494344,50,529.6266609827677,50,531.2933276494344L50,532.9599943161011" style="stroke: rgb(0, 0, 0); stroke-width: 1px; fill: none; marker-end: url(&quot;#arrowhead-vee&quot;);"/><path id="edge-softmax" class="edge-path" d="M50,553.2799940109253L50,556.713327328364C50,560.1466606458029,50,567.0133272806803,50,573.8799939155579C50,580.7466605504354,50,587.6133271853129,50,591.0466605027517L50,594.4799938201904" style="stroke: rgb(0, 0, 0); stroke-width: 1px; fill: none; marker-end: url(&quot;#arrowhead-vee&quot;);"/></g><g id="edge-labels" class="edge-labels"><g style="opacity: 1;" class="edge-label" id="edge-label-edge-env" transform="translate(90.23999786376953,40.91999959945679)"><g transform="translate(-35.23999786376953,-5.599999904632568)"><text style="font-family: -apple-system, BlinkMacSystemFont, &quot;Segoe WPC&quot;, &quot;Segoe UI&quot;, &quot;Ubuntu&quot;, &quot;Droid Sans&quot;, sans-serif, &quot;PingFang SC&quot;; font-size: 10px;"><tspan xml:space="preserve" dy="1em" x="1">batch×1×32×32</tspan></text></g></g><g style="opacity: 1;" class="edge-label" id="edge-label-edge-softmax" transform="translate(87.42000198364258,573.8799939155579)"><g transform="translate(-32.42000198364258,-5.599999904632568)"><text style="font-family: -apple-system, BlinkMacSystemFont, &quot;Segoe WPC&quot;, &quot;Segoe UI&quot;, &quot;Ubuntu&quot;, &quot;Droid Sans&quot;, sans-serif, &quot;PingFang SC&quot;; font-size: 10px;"><tspan xml:space="preserve" dy="1em" x="1">batch×10×1×1</tspan></text></g></g></g><g id="nodes" class="nodes"><g id="node-name-conv1" class="node graph-node" style="opacity: 1;" transform="translate(50,89.99999904632568)"><g transform="translate(-50,-28.479999542236328)"><g class="node-item node-item-type node-item-type-layer" transform="translate(0,0)"><path d="M5,0h90a5,5 0 0 1 5,5v15.319999694824219a0,0 0 0 1 0,0h-100a0,0 0 0 1 0,0v-15.319999694824219a5,5 0 0 1 5,-5z" style="stroke: rgb(0, 0, 0); fill: rgb(51, 85, 136); stroke-width: 0px;"/><text x="6" y="14.230000495910645" style="font-family: -apple-system, BlinkMacSystemFont, &quot;Segoe WPC&quot;, &quot;Segoe UI&quot;, &quot;Ubuntu&quot;, &quot;Droid Sans&quot;, sans-serif, &quot;PingFang SC&quot;; font-size: 11px; text-rendering: geometricprecision; fill: rgb(255, 255, 255);">Conv</text><title>conv1</title></g><g class="node-attribute" transform="translate(0,20.31999969482422)"><path d="M0,0h100a0,0 0 0 1 0,0v31.64000129699707a5,5 0 0 1 -5,5h-90a5,5 0 0 1 -5,-5v-31.64000129699707a0,0 0 0 1 0,0z" style="stroke: rgb(0, 0, 0); fill: rgb(255, 255, 255); stroke-width: 0px;"/><text id="initializer-conv1_w" xml:space="preserve" x="6" y="14.440000534057617" style="font-family: -apple-system, BlinkMacSystemFont, &quot;Segoe WPC&quot;, &quot;Segoe UI&quot;, &quot;Ubuntu&quot;, &quot;Droid Sans&quot;, sans-serif, &quot;PingFang SC&quot;; font-size: 9px; font-weight: normal; text-rendering: geometricprecision;"><title>float32[6,1,5,5]</title><tspan style="font-weight: bold;">W</tspan><tspan>〈6×1×5×5〉</tspan></text><text id="initializer-conv1_b" xml:space="preserve" x="6" y="29.760001182556152" style="font-family: -apple-system, BlinkMacSystemFont, &quot;Segoe WPC&quot;, &quot;Segoe UI&quot;, &quot;Ubuntu&quot;, &quot;Droid Sans&quot;, sans-serif, &quot;PingFang SC&quot;; font-size: 9px; font-weight: normal; text-rendering: geometricprecision;"><title>float32[6]</title><tspan style="font-weight: bold;">B</tspan><tspan>〈6〉</tspan></text><line class="node" x1="0" x2="100" y1="0" y2="0" style="stroke: rgb(51, 51, 51); fill: none; stroke-width: 1px;"/></g><path class="node border" d="M5,0h90a5,5 0 0 1 5,5v46.96000099182129a5,5 0 0 1 -5,5h-90a5,5 0 0 1 -5,-5v-46.96000099182129a5,5 0 0 1 5,-5z" style="stroke: rgb(51, 51, 51); fill: none; stroke-width: 1px;"/></g></g><g id="node-name-conv1_act" class="node graph-node" style="opacity: 1;" transform="translate(50,148.63999843597412)"><g transform="translate(-18.192501068115234,-10.15999984741211)"><g class="node-item node-item-type node-item-type-activation" transform="translate(0,0)"><path d="M5,0h26.385000228881836a5,5 0 0 1 5,5v10.319999694824219a5,5 0 0 1 -5,5h-26.385000228881836a5,5 0 0 1 -5,-5v-10.319999694824219a5,5 0 0 1 5,-5z" style="stroke: rgb(0, 0, 0); fill: rgb(112, 41, 33); stroke-width: 0px;"/><text x="6" y="14.230000495910645" style="font-family: -apple-system, BlinkMacSystemFont, &quot;Segoe WPC&quot;, &quot;Segoe UI&quot;, &quot;Ubuntu&quot;, &quot;Droid Sans&quot;, sans-serif, &quot;PingFang SC&quot;; font-size: 11px; text-rendering: geometricprecision; fill: rgb(255, 255, 255);">Relu</text><title>conv1_act</title></g><path class="node border" d="M5,0h26.385000228881836a5,5 0 0 1 5,5v10.319999694824219a5,5 0 0 1 -5,5h-26.385000228881836a5,5 0 0 1 -5,-5v-10.319999694824219a5,5 0 0 1 5,-5z" style="stroke: rgb(51, 51, 51); fill: none; stroke-width: 1px;"/></g></g><g id="node-name-conv1_act_scaling" class="node graph-node" style="opacity: 1;" transform="translate(50,199.61999797821045)"><g transform="translate(-50,-20.81999969482422)"><g class="node-item node-item-type" transform="translate(0,0)"><path d="M5,0h90a5,5 0 0 1 5,5v15.319999694824219a0,0 0 0 1 0,0h-100a0,0 0 0 1 0,0v-15.319999694824219a5,5 0 0 1 5,-5z" style="stroke: rgb(0, 0, 0); fill: rgb(0, 0, 0); stroke-width: 0px;"/><text x="6" y="14.230000495910645" style="font-family: -apple-system, BlinkMacSystemFont, &quot;Segoe WPC&quot;, &quot;Segoe UI&quot;, &quot;Ubuntu&quot;, &quot;Droid Sans&quot;, sans-serif, &quot;PingFang SC&quot;; font-size: 11px; text-rendering: geometricprecision; fill: rgb(255, 255, 255);">Mul</text><title>conv1_act_scaling</title></g><g class="node-attribute" transform="translate(0,20.31999969482422)"><path d="M0,0h100a0,0 0 0 1 0,0v16.320000648498535a5,5 0 0 1 -5,5h-90a5,5 0 0 1 -5,-5v-16.320000648498535a0,0 0 0 1 0,0z" style="stroke: rgb(0, 0, 0); fill: rgb(255, 255, 255); stroke-width: 0px;"/><text id="initializer-conv1_act_scaling_s" xml:space="preserve" x="6" y="14.440000534057617" style="font-family: -apple-system, BlinkMacSystemFont, &quot;Segoe WPC&quot;, &quot;Segoe UI&quot;, &quot;Ubuntu&quot;, &quot;Droid Sans&quot;, sans-serif, &quot;PingFang SC&quot;; font-size: 9px; font-weight: normal; text-rendering: geometricprecision;"><title>float32[1]</title><tspan style="font-weight: bold;">B</tspan><tspan>〈1〉</tspan></text><line class="node" x1="0" x2="100" y1="0" y2="0" style="stroke: rgb(51, 51, 51); fill: none; stroke-width: 1px;"/></g><path class="node border" d="M5,0h90a5,5 0 0 1 5,5v31.640000343322754a5,5 0 0 1 -5,5h-90a5,5 0 0 1 -5,-5v-31.640000343322754a5,5 0 0 1 5,-5z" style="stroke: rgb(51, 51, 51); fill: none; stroke-width: 1px;"/></g></g><g id="node-name-conv1_act_scaling_clip" class="node graph-node" style="opacity: 1;" transform="translate(50,268.919997215271)"><g transform="translate(-50,-28.479999542236328)"><g class="node-item node-item-type" transform="translate(0,0)"><path d="M5,0h90a5,5 0 0 1 5,5v15.319999694824219a0,0 0 0 1 0,0h-100a0,0 0 0 1 0,0v-15.319999694824219a5,5 0 0 1 5,-5z" style="stroke: rgb(0, 0, 0); fill: rgb(0, 0, 0); stroke-width: 0px;"/><text x="6" y="14.230000495910645" style="font-family: -apple-system, BlinkMacSystemFont, &quot;Segoe WPC&quot;, &quot;Segoe UI&quot;, &quot;Ubuntu&quot;, &quot;Droid Sans&quot;, sans-serif, &quot;PingFang SC&quot;; font-size: 11px; text-rendering: geometricprecision; fill: rgb(255, 255, 255);">Clip</text><title>conv1_act_scaling_clip</title></g><g class="node-attribute" transform="translate(0,20.31999969482422)"><path d="M0,0h100a0,0 0 0 1 0,0v31.64000129699707a5,5 0 0 1 -5,5h-90a5,5 0 0 1 -5,-5v-31.64000129699707a0,0 0 0 1 0,0z" style="stroke: rgb(0, 0, 0); fill: rgb(255, 255, 255); stroke-width: 0px;"/><text id="initializer-conv1_act_scaling_clip_min" xml:space="preserve" x="6" y="14.440000534057617" style="font-family: -apple-system, BlinkMacSystemFont, &quot;Segoe WPC&quot;, &quot;Segoe UI&quot;, &quot;Ubuntu&quot;, &quot;Droid Sans&quot;, sans-serif, &quot;PingFang SC&quot;; font-size: 9px; font-weight: normal; text-rendering: geometricprecision;"><title>float32[1]</title><tspan style="font-weight: bold;">min</tspan><tspan>〈1〉</tspan></text><text id="initializer-conv1_act_scaling_clip_max" xml:space="preserve" x="6" y="29.760001182556152" style="font-family: -apple-system, BlinkMacSystemFont, &quot;Segoe WPC&quot;, &quot;Segoe UI&quot;, &quot;Ubuntu&quot;, &quot;Droid Sans&quot;, sans-serif, &quot;PingFang SC&quot;; font-size: 9px; font-weight: normal; text-rendering: geometricprecision;"><title>float32[1]</title><tspan style="font-weight: bold;">max</tspan><tspan>〈1〉</tspan></text><line class="node" x1="0" x2="100" y1="0" y2="0" style="stroke: rgb(51, 51, 51); fill: none; stroke-width: 1px;"/></g><path class="node border" d="M5,0h90a5,5 0 0 1 5,5v46.96000099182129a5,5 0 0 1 -5,5h-90a5,5 0 0 1 -5,-5v-46.96000099182129a5,5 0 0 1 5,-5z" style="stroke: rgb(51, 51, 51); fill: none; stroke-width: 1px;"/></g></g><g id="node-name-fc1" class="node graph-node" style="opacity: 1;" transform="translate(50,345.87999629974365)"><g transform="translate(-50,-28.479999542236328)"><g class="node-item node-item-type node-item-type-layer" transform="translate(0,0)"><path d="M5,0h90a5,5 0 0 1 5,5v15.319999694824219a0,0 0 0 1 0,0h-100a0,0 0 0 1 0,0v-15.319999694824219a5,5 0 0 1 5,-5z" style="stroke: rgb(0, 0, 0); fill: rgb(51, 85, 136); stroke-width: 0px;"/><text x="6" y="14.230000495910645" style="font-family: -apple-system, BlinkMacSystemFont, &quot;Segoe WPC&quot;, &quot;Segoe UI&quot;, &quot;Ubuntu&quot;, &quot;Droid Sans&quot;, sans-serif, &quot;PingFang SC&quot;; font-size: 11px; text-rendering: geometricprecision; fill: rgb(255, 255, 255);">Gemm</text><title>fc1</title></g><g class="node-attribute" transform="translate(0,20.31999969482422)"><path d="M0,0h100a0,0 0 0 1 0,0v31.64000129699707a5,5 0 0 1 -5,5h-90a5,5 0 0 1 -5,-5v-31.64000129699707a0,0 0 0 1 0,0z" style="stroke: rgb(0, 0, 0); fill: rgb(255, 255, 255); stroke-width: 0px;"/><text id="initializer-fc1_w" xml:space="preserve" x="6" y="14.440000534057617" style="font-family: -apple-system, BlinkMacSystemFont, &quot;Segoe WPC&quot;, &quot;Segoe UI&quot;, &quot;Ubuntu&quot;, &quot;Droid Sans&quot;, sans-serif, &quot;PingFang SC&quot;; font-size: 9px; font-weight: normal; text-rendering: geometricprecision;"><title>float32[10,4704]</title><tspan style="font-weight: bold;">B</tspan><tspan>〈10×4704〉</tspan></text><text id="initializer-fc1_b" xml:space="preserve" x="6" y="29.760001182556152" style="font-family: -apple-system, BlinkMacSystemFont, &quot;Segoe WPC&quot;, &quot;Segoe UI&quot;, &quot;Ubuntu&quot;, &quot;Droid Sans&quot;, sans-serif, &quot;PingFang SC&quot;; font-size: 9px; font-weight: normal; text-rendering: geometricprecision;"><title>float32[10]</title><tspan style="font-weight: bold;">C</tspan><tspan>〈10〉</tspan></text><line class="node" x1="0" x2="100" y1="0" y2="0" style="stroke: rgb(51, 51, 51); fill: none; stroke-width: 1px;"/></g><path class="node border" d="M5,0h90a5,5 0 0 1 5,5v46.96000099182129a5,5 0 0 1 -5,5h-90a5,5 0 0 1 -5,-5v-46.96000099182129a5,5 0 0 1 5,-5z" style="stroke: rgb(51, 51, 51); fill: none; stroke-width: 1px;"/></g></g><g id="node-name-fc1_act" class="node graph-node" style="opacity: 1;" transform="translate(50,415.1799955368042)"><g transform="translate(-50,-20.81999969482422)"><g class="node-item node-item-type" transform="translate(0,0)"><path d="M5,0h90a5,5 0 0 1 5,5v15.319999694824219a0,0 0 0 1 0,0h-100a0,0 0 0 1 0,0v-15.319999694824219a5,5 0 0 1 5,-5z" style="stroke: rgb(0, 0, 0); fill: rgb(0, 0, 0); stroke-width: 0px;"/><text x="6" y="14.230000495910645" style="font-family: -apple-system, BlinkMacSystemFont, &quot;Segoe WPC&quot;, &quot;Segoe UI&quot;, &quot;Ubuntu&quot;, &quot;Droid Sans&quot;, sans-serif, &quot;PingFang SC&quot;; font-size: 11px; text-rendering: geometricprecision; fill: rgb(255, 255, 255);">Mul</text><title>fc1_act</title></g><g class="node-attribute" transform="translate(0,20.31999969482422)"><path d="M0,0h100a0,0 0 0 1 0,0v16.320000648498535a5,5 0 0 1 -5,5h-90a5,5 0 0 1 -5,-5v-16.320000648498535a0,0 0 0 1 0,0z" style="stroke: rgb(0, 0, 0); fill: rgb(255, 255, 255); stroke-width: 0px;"/><text id="initializer-fc1_act_s" xml:space="preserve" x="6" y="14.440000534057617" style="font-family: -apple-system, BlinkMacSystemFont, &quot;Segoe WPC&quot;, &quot;Segoe UI&quot;, &quot;Ubuntu&quot;, &quot;Droid Sans&quot;, sans-serif, &quot;PingFang SC&quot;; font-size: 9px; font-weight: normal; text-rendering: geometricprecision;"><title>float32[1]</title><tspan style="font-weight: bold;">B</tspan><tspan>〈1〉</tspan></text><line class="node" x1="0" x2="100" y1="0" y2="0" style="stroke: rgb(51, 51, 51); fill: none; stroke-width: 1px;"/></g><path class="node border" d="M5,0h90a5,5 0 0 1 5,5v31.640000343322754a5,5 0 0 1 -5,5h-90a5,5 0 0 1 -5,-5v-31.640000343322754a5,5 0 0 1 5,-5z" style="stroke: rgb(51, 51, 51); fill: none; stroke-width: 1px;"/></g></g><g id="node-name-fc1_act_clip" class="node graph-node" style="opacity: 1;" transform="translate(50,484.47999477386475)"><g transform="translate(-50,-28.479999542236328)"><g class="node-item node-item-type" transform="translate(0,0)"><path d="M5,0h90a5,5 0 0 1 5,5v15.319999694824219a0,0 0 0 1 0,0h-100a0,0 0 0 1 0,0v-15.319999694824219a5,5 0 0 1 5,-5z" style="stroke: rgb(0, 0, 0); fill: rgb(0, 0, 0); stroke-width: 0px;"/><text x="6" y="14.230000495910645" style="font-family: -apple-system, BlinkMacSystemFont, &quot;Segoe WPC&quot;, &quot;Segoe UI&quot;, &quot;Ubuntu&quot;, &quot;Droid Sans&quot;, sans-serif, &quot;PingFang SC&quot;; font-size: 11px; text-rendering: geometricprecision; fill: rgb(255, 255, 255);">Clip</text><title>fc1_act_clip</title></g><g class="node-attribute" transform="translate(0,20.31999969482422)"><path d="M0,0h100a0,0 0 0 1 0,0v31.64000129699707a5,5 0 0 1 -5,5h-90a5,5 0 0 1 -5,-5v-31.64000129699707a0,0 0 0 1 0,0z" style="stroke: rgb(0, 0, 0); fill: rgb(255, 255, 255); stroke-width: 0px;"/><text id="initializer-fc1_act_clip_min" xml:space="preserve" x="6" y="14.440000534057617" style="font-family: -apple-system, BlinkMacSystemFont, &quot;Segoe WPC&quot;, &quot;Segoe UI&quot;, &quot;Ubuntu&quot;, &quot;Droid Sans&quot;, sans-serif, &quot;PingFang SC&quot;; font-size: 9px; font-weight: normal; text-rendering: geometricprecision;"><title>float32[1]</title><tspan style="font-weight: bold;">min</tspan><tspan>〈1〉</tspan></text><text id="initializer-fc1_act_clip_max" xml:space="preserve" x="6" y="29.760001182556152" style="font-family: -apple-system, BlinkMacSystemFont, &quot;Segoe WPC&quot;, &quot;Segoe UI&quot;, &quot;Ubuntu&quot;, &quot;Droid Sans&quot;, sans-serif, &quot;PingFang SC&quot;; font-size: 9px; font-weight: normal; text-rendering: geometricprecision;"><title>float32[1]</title><tspan style="font-weight: bold;">max</tspan><tspan>〈1〉</tspan></text><line class="node" x1="0" x2="100" y1="0" y2="0" style="stroke: rgb(51, 51, 51); fill: none; stroke-width: 1px;"/></g><path class="node border" d="M5,0h90a5,5 0 0 1 5,5v46.96000099182129a5,5 0 0 1 -5,5h-90a5,5 0 0 1 -5,-5v-46.96000099182129a5,5 0 0 1 5,-5z" style="stroke: rgb(51, 51, 51); fill: none; stroke-width: 1px;"/></g></g><g id="node-name-softmax" class="node graph-node" style="opacity: 1;" transform="translate(50,543.1199941635132)"><g transform="translate(-27.921998977661133,-10.15999984741211)"><g class="node-item node-item-type node-item-type-activation" transform="translate(0,0)"><path d="M5,0h45.843997955322266a5,5 0 0 1 5,5v10.319999694824219a5,5 0 0 1 -5,5h-45.843997955322266a5,5 0 0 1 -5,-5v-10.319999694824219a5,5 0 0 1 5,-5z" style="stroke: rgb(0, 0, 0); fill: rgb(112, 41, 33); stroke-width: 0px;"/><text x="6" y="14.230000495910645" style="font-family: -apple-system, BlinkMacSystemFont, &quot;Segoe WPC&quot;, &quot;Segoe UI&quot;, &quot;Ubuntu&quot;, &quot;Droid Sans&quot;, sans-serif, &quot;PingFang SC&quot;; font-size: 11px; text-rendering: geometricprecision; fill: rgb(255, 255, 255);">Softmax</text><title>softmax</title></g><path class="node border" d="M5,0h45.843997955322266a5,5 0 0 1 5,5v10.319999694824219a5,5 0 0 1 -5,5h-45.843997955322266a5,5 0 0 1 -5,-5v-10.319999694824219a5,5 0 0 1 5,-5z" style="stroke: rgb(51, 51, 51); fill: none; stroke-width: 1px;"/></g></g><g id="input-name-env" class="node graph-input" style="opacity: 1;" transform="translate(50,10.15999984741211)"><g transform="translate(-15.904500007629395,-10.15999984741211)"><g class="node-item graph-item-input" transform="translate(0,0)"><path d="M5,0h21.80900001525879a5,5 0 0 1 5,5v10.319999694824219a5,5 0 0 1 -5,5h-21.80900001525879a5,5 0 0 1 -5,-5v-10.319999694824219a5,5 0 0 1 5,-5z" style="stroke: rgb(0, 0, 0); fill: rgb(238, 238, 238); stroke-width: 0px;"/><text x="6" y="14.230000495910645" style="font-family: -apple-system, BlinkMacSystemFont, &quot;Segoe WPC&quot;, &quot;Segoe UI&quot;, &quot;Ubuntu&quot;, &quot;Droid Sans&quot;, sans-serif, &quot;PingFang SC&quot;; font-size: 11px; text-rendering: geometricprecision;">env</text><title>float32[batch,1,32,32]</title></g><path class="node border" d="M5,0h21.80900001525879a5,5 0 0 1 5,5v10.319999694824219a5,5 0 0 1 -5,5h-21.80900001525879a5,5 0 0 1 -5,-5v-10.319999694824219a5,5 0 0 1 5,-5z" style="stroke: rgb(51, 51, 51); fill: none; stroke-width: 1px;"/></g></g><g class="node" style="opacity: 1;" transform="translate(50,604.6399936676025)"><g transform="translate(-27.448999404907227,-10.15999984741211)"><g class="node-item graph-item-output" transform="translate(0,0)"><path d="M5,0h44.89799880981445a5,5 0 0 1 5,5v10.319999694824219a5,5 0 0 1 -5,5h-44.89799880981445a5,5 0 0 1 -5,-5v-10.319999694824219a5,5 0 0 1 5,-5z" style="stroke: rgb(0, 0, 0); fill: rgb(238, 238, 238); stroke-width: 0px;"/><text x="6" y="14.230000495910645" style="font-family: -apple-system, BlinkMacSystemFont, &quot;Segoe WPC&quot;, &quot;Segoe UI&quot;, &quot;Ubuntu&quot;, &quot;Droid Sans&quot;, sans-serif, &quot;PingFang SC&quot;; font-size: 11px; text-rendering: geometricprecision;">softmax</text><title>float32[batch,10,1,1]</title></g><path class="node border" d="M5,0h44.89799880981445a5,5 0 0 1 5,5v10.319999694824219a5,5 0 0 1 -5,5h-44.89799880981445a5,5 0 0 1 -5,-5v-10.319999694824219a5,5 0 0 1 5,-5z" style="stroke: rgb(51, 51, 51); fill: none; stroke-width: 1px;"/></g></g></g></svg>
