<svg xmlns="http://www.w3.org/2000/svg" id="export" class="canvas" preserveAspectRatio="xMidYMid meet" style="position: static; margin: auto; width: 430.885px; height: 1568.05px;" viewBox="0 0 140 1003" width="140" height="1003"><rect id="background" fill="#fff" pointer-events="all" width="140" height="1003"/><g id="clusters" class="clusters"/><g id="edge-paths" class="edge-paths"><defs><marker id="arrowhead-vee" viewBox="0 0 10 10" refX="9" refY="5" markerUnits="strokeWidth" markerWidth="8" markerHeight="6" orient="auto" style="fill: rgb(0, 0, 0);"><path d="M 0 0 L 10 5 L 0 10 L 4 5 z" style="stroke-width: 1px;"/></marker><marker id="arrowhead-vee-select" viewBox="0 0 10 10" refX="9" refY="5" markerUnits="strokeWidth" markerWidth="8" markerHeight="6" orient="auto" style="fill: rgb(238, 0, 0);"><path d="M 0 0 L 10 5 L 0 10 L 4 5 z" style="stroke-width: 1px;"/></marker></defs><path id="edge-env" class="edge-path" d="M50,20.31999969482422L50,23.75333301226298C50,27.18666632970174,50,34.05333296457926,50,40.91999959945679C50,47.78666623433431,50,54.65333286921183,50,58.086666186650596L50,61.519999504089355" style="stroke: rgb(0, 0, 0); stroke-width: 1px; fill: none; marker-end: url(&quot;#arrowhead-vee&quot;);"/><path id="edge-conv1_bias" class="edge-path" d="M50,103.1599988937378L50,104.82666556040446C50,106.49333222707112,50,109.82666556040446,50,113.1599988937378C50,116.49333222707112,50,119.82666556040446,50,121.49333222707112L50,123.1599988937378" style="stroke: rgb(0, 0, 0); stroke-width: 1px; fill: none; marker-end: url(&quot;#arrowhead-vee&quot;);"/><path id="edge-conv1_act" class="edge-path" d="M50,164.79999828338623L50,166.4666649500529C50,168.13333161671957,50,171.4666649500529,50,174.79999828338623C50,178.13333161671957,50,181.4666649500529,50,183.13333161671957L50,184.79999828338623" style="stroke: rgb(0, 0, 0); stroke-width: 1px; fill: none; marker-end: url(&quot;#arrowhead-vee&quot;);"/><path id="edge-conv1_act_scaling" class="edge-path" d="M50,205.11999797821045L50,206.7866646448771C50,208.4533313115438,50,211.7866646448771,50,215.11999797821045C50,218.4533313115438,50,221.7866646448771,50,223.4533313115438L50,225.11999797821045" style="stroke: rgb(0, 0, 0); stroke-width: 1px; fill: none; marker-end: url(&quot;#arrowhead-vee&quot;);"/><path id="edge-conv1_act_scaling_icast" class="edge-path" d="M50,245.43999767303467L50,247.10666433970133C50,248.773331006368,50,252.10666433970133,50,255.43999767303467C50,258.773331006368,50,262.10666433970135,50,263.773331006368L50,265.43999767303467" style="stroke: rgb(0, 0, 0); stroke-width: 1px; fill: none; marker-end: url(&quot;#arrowhead-vee&quot;);"/><path id="edge-conv1_act_scaling_clip_ocast" class="edge-path" d="M50,307.0799970626831L50,308.7466637293498C50,310.4133303960164,50,313.7466637293498,50,317.0799970626831C50,320.4133303960164,50,323.7466637293498,50,325.4133303960164L50,327.0799970626831" style="stroke: rgb(0, 0, 0); stroke-width: 1px; fill: none; marker-end: url(&quot;#arrowhead-vee&quot;);"/><path id="edge-conv1_act_scaling_clip" class="edge-path" d="M50,347.3999967575073L50,349.066663424174C50,350.73333009084064,50,354.066663424174,50,357.3999967575073C50,360.73333009084064,50,364.066663424174,50,365.73333009084064L50,367.3999967575073" style="stroke: rgb(0, 0, 0); stroke-width: 1px; fill: none; marker-end: url(&quot;#arrowhead-vee&quot;);"/><path id="edge-conv1_ocast" class="edge-path" d="M50,424.35999584198L50,426.02666250864667C50,427.6933291753133,50,431.02666250864667,50,434.35999584198C50,437.6933291753133,50,441.02666250864667,50,442.6933291753133L50,444.35999584198" style="stroke: rgb(0, 0, 0); stroke-width: 1px; fill: none; marker-end: url(&quot;#arrowhead-vee&quot;);"/><path id="edge-conv1" class="edge-path" d="M50,464.6799955368042L50,466.3466622034709C50,468.0133288701375,50,471.3466622034709,50,474.6799955368042C50,478.0133288701375,50,481.3466622034709,50,483.0133288701375L50,484.6799955368042" style="stroke: rgb(0, 0, 0); stroke-width: 1px; fill: none; marker-end: url(&quot;#arrowhead-vee&quot;);"/><path id="edge-fc1_bias" class="edge-path" d="M50,526.3199949264526L50,527.9866615931193C50,529.653328259786,50,532.9866615931193,50,536.3199949264526C50,539.653328259786,50,542.9866615931193,50,544.653328259786L50,546.3199949264526" style="stroke: rgb(0, 0, 0); stroke-width: 1px; fill: none; marker-end: url(&quot;#arrowhead-vee&quot;);"/><path id="edge-fc1_act" class="edge-path" d="M50,587.9599943161011L50,589.6266609827677C50,591.2933276494344,50,594.6266609827677,50,597.9599943161011C50,601.2933276494344,50,604.6266609827677,50,606.2933276494344L50,607.9599943161011" style="stroke: rgb(0, 0, 0); stroke-width: 1px; fill: none; marker-end: url(&quot;#arrowhead-vee&quot;);"/><path id="edge-fc1_act_icast" class="edge-path" d="M50,628.2799940109253L50,629.9466606775919C50,631.6133273442587,50,634.9466606775919,50,638.2799940109253C50,641.6133273442587,50,644.9466606775919,50,646.6133273442587L50,648.2799940109253" style="stroke: rgb(0, 0, 0); stroke-width: 1px; fill: none; marker-end: url(&quot;#arrowhead-vee&quot;);"/><path id="edge-fc1_act_clip_ocast" class="edge-path" d="M50,689.9199934005737L50,691.5866600672404C50,693.2533267339071,50,696.5866600672404,50,699.9199934005737C50,703.2533267339071,50,706.5866600672404,50,708.2533267339071L50,709.9199934005737" style="stroke: rgb(0, 0, 0); stroke-width: 1px; fill: none; marker-end: url(&quot;#arrowhead-vee&quot;);"/><path id="edge-fc1_act_clip" class="edge-path" d="M50,730.239993095398L50,731.9066597620646C50,733.5733264287313,50,736.9066597620646,50,740.239993095398C50,743.5733264287313,50,746.9066597620646,50,748.5733264287313L50,750.239993095398" style="stroke: rgb(0, 0, 0); stroke-width: 1px; fill: none; marker-end: url(&quot;#arrowhead-vee&quot;);"/><path id="edge-fc1_ocast" class="edge-path" d="M50,807.1999921798706L50,808.8666588465372C50,810.533325513204,50,813.8666588465372,50,817.1999921798706C50,820.533325513204,50,823.8666588465372,50,825.533325513204L50,827.1999921798706" style="stroke: rgb(0, 0, 0); stroke-width: 1px; fill: none; marker-end: url(&quot;#arrowhead-vee&quot;);"/><path id="edge-fc1" class="edge-path" d="M50,847.5199918746948L50,849.1866585413615C50,850.8533252080282,50,854.1866585413615,50,857.5199918746948C50,860.8533252080282,50,864.1866585413615,50,865.8533252080282L50,867.5199918746948" style="stroke: rgb(0, 0, 0); stroke-width: 1px; fill: none; marker-end: url(&quot;#arrowhead-vee&quot;);"/><path id="edge-fc1_icast" class="edge-path" d="M50,887.839991569519L50,889.5066582361857C50,891.1733249028524,50,894.5066582361857,50,897.839991569519C50,901.1733249028524,50,904.5066582361857,50,906.1733249028524L50,907.839991569519" style="stroke: rgb(0, 0, 0); stroke-width: 1px; fill: none; marker-end: url(&quot;#arrowhead-vee&quot;);"/><path id="edge-softmax" class="edge-path" d="M50,928.1599912643433L50,931.593324581782C50,935.0266578992208,50,941.8933245340983,50,948.7599911689758C50,955.6266578038534,50,962.4933244387308,50,965.9266577561697L50,969.3599910736084" style="stroke: rgb(0, 0, 0); stroke-width: 1px; fill: none; marker-end: url(&quot;#arrowhead-vee&quot;);"/></g><g id="edge-labels" class="edge-labels"><g style="opacity: 1;" class="edge-label" id="edge-label-edge-env" transform="translate(90.23999786376953,40.91999959945679)"><g transform="translate(-35.23999786376953,-5.599999904632568)"><text style="font-family: -apple-system, BlinkMacSystemFont, &quot;Segoe WPC&quot;, &quot;Segoe UI&quot;, &quot;Ubuntu&quot;, &quot;Droid Sans&quot;, sans-serif, &quot;PingFang SC&quot;; font-size: 10px;"><tspan xml:space="preserve" dy="1em" x="1">batch×1×32×32</tspan></text></g></g><g style="opacity: 1;" class="edge-label" id="edge-label-edge-softmax" transform="translate(87.42000198364258,948.7599911689758)"><g transform="translate(-32.42000198364258,-5.599999904632568)"><text style="font-family: -apple-system, BlinkMacSystemFont, &quot;Segoe WPC&quot;, &quot;Segoe UI&quot;, &quot;Ubuntu&quot;, &quot;Droid Sans&quot;, sans-serif, &quot;PingFang SC&quot;; font-size: 10px;"><tspan xml:space="preserve" dy="1em" x="1">batch×10×1×1</tspan></text></g></g></g><g id="nodes" class="nodes"><g id="node-name-conv1" class="node graph-node" style="opacity: 1;" transform="translate(50,82.33999919891357)"><g transform="translate(-50,-20.81999969482422)"><g class="node-item node-item-type node-item-type-layer" transform="translate(0,0)"><path d="M5,0h90a5,5 0 0 1 5,5v15.319999694824219a0,0 0 0 1 0,0h-100a0,0 0 0 1 0,0v-15.319999694824219a5,5 0 0 1 5,-5z" style="stroke: rgb(0, 0, 0); fill: rgb(51, 85, 136); stroke-width: 0px;"/><text x="6" y="14.230000495910645" style="font-family: -apple-system, BlinkMacSystemFont, &quot;Segoe WPC&quot;, &quot;Segoe UI&quot;, &quot;Ubuntu&quot;, &quot;Droid Sans&quot;, sans-serif, &quot;PingFang SC&quot;; font-size: 11px; text-rendering: geometricprecision; fill: rgb(255, 255, 255);">ConvInteger</text><title>conv1</title></g><g class="node-attribute" transform="translate(0,20.31999969482422)"><path d="M0,0h100a0,0 0 0 1 0,0v16.320000648498535a5,5 0 0 1 -5,5h-90a5,5 0 0 1 -5,-5v-16.320000648498535a0,0 0 0 1 0,0z" style="stroke: rgb(0, 0, 0); fill: rgb(255, 255, 255); stroke-width: 0px;"/><text id="initializer-conv1_w" xml:space="preserve" x="6" y="14.440000534057617" style="font-family: -apple-system, BlinkMacSystemFont, &quot;Segoe WPC&quot;, &quot;Segoe UI&quot;, &quot;Ubuntu&quot;, &quot;Droid Sans&quot;, sans-serif, &quot;PingFang SC&quot;; font-size: 9px; font-weight: normal; text-rendering: geometricprecision;"><title>int8[6,1,5,5]</title><tspan style="font-weight: bold;">w</tspan><tspan>〈6×1×5×5〉</tspan></text><line class="node" x1="0" x2="100" y1="0" y2="0" style="stroke: rgb(51, 51, 51); fill: none; stroke-width: 1px;"/></g><path class="node border" d="M5,0h90a5,5 0 0 1 5,5v31.640000343322754a5,5 0 0 1 -5,5h-90a5,5 0 0 1 -5,-5v-31.640000343322754a5,5 0 0 1 5,-5z" style="stroke: rgb(51, 51, 51); fill: none; stroke-width: 1px;"/></g></g><g id="node-name-conv1_bias" class="node graph-node" style="opacity: 1;" transform="translate(50,143.979998588562)"><g transform="translate(-50,-20.81999969482422)"><g class="node-item node-item-type" transform="translate(0,0)"><path d="M5,0h90a5,5 0 0 1 5,5v15.319999694824219a0,0 0 0 1 0,0h-100a0,0 0 0 1 0,0v-15.319999694824219a5,5 0 0 1 5,-5z" style="stroke: rgb(0, 0, 0); fill: rgb(0, 0, 0); stroke-width: 0px;"/><text x="6" y="14.230000495910645" style="font-family: -apple-system, BlinkMacSystemFont, &quot;Segoe WPC&quot;, &quot;Segoe UI&quot;, &quot;Ubuntu&quot;, &quot;Droid Sans&quot;, sans-serif, &quot;PingFang SC&quot;; font-size: 11px; text-rendering: geometricprecision; fill: rgb(255, 255, 255);">Add</text><title>conv1_bias</title></g><g class="node-attribute" transform="translate(0,20.31999969482422)"><path d="M0,0h100a0,0 0 0 1 0,0v16.320000648498535a5,5 0 0 1 -5,5h-90a5,5 0 0 1 -5,-5v-16.320000648498535a0,0 0 0 1 0,0z" style="stroke: rgb(0, 0, 0); fill: rgb(255, 255, 255); stroke-width: 0px;"/><text id="initializer-conv1_b" xml:space="preserve" x="6" y="14.440000534057617" style="font-family: -apple-system, BlinkMacSystemFont, &quot;Segoe WPC&quot;, &quot;Segoe UI&quot;, &quot;Ubuntu&quot;, &quot;Droid Sans&quot;, sans-serif, &quot;PingFang SC&quot;; font-size: 9px; font-weight: normal; text-rendering: geometricprecision;"><title>int32[6]</title><tspan style="font-weight: bold;">B</tspan><tspan>〈6〉</tspan></text><line class="node" x1="0" x2="100" y1="0" y2="0" style="stroke: rgb(51, 51, 51); fill: none; stroke-width: 1px;"/></g><path class="node border" d="M5,0h90a5,5 0 0 1 5,5v31.640000343322754a5,5 0 0 1 -5,5h-90a5,5 0 0 1 -5,-5v-31.640000343322754a5,5 0 0 1 5,-5z" style="stroke: rgb(51, 51, 51); fill: none; stroke-width: 1px;"/></g></g><g id="node-name-conv1_act" class="node graph-node" style="opacity: 1;" transform="translate(50,194.95999813079834)"><g transform="translate(-18.192501068115234,-10.15999984741211)"><g class="node-item node-item-type node-item-type-activation" transform="translate(0,0)"><path d="M5,0h26.385000228881836a5,5 0 0 1 5,5v10.319999694824219a5,5 0 0 1 -5,5h-26.385000228881836a5,5 0 0 1 -5,-5v-10.319999694824219a5,5 0 0 1 5,-5z" style="stroke: rgb(0, 0, 0); fill: rgb(112, 41, 33); stroke-width: 0px;"/><text x="6" y="14.230000495910645" style="font-family: -apple-system, BlinkMacSystemFont, &quot;Segoe WPC&quot;, &quot;Segoe UI&quot;, &quot;Ubuntu&quot;, &quot;Droid Sans&quot;, sans-serif, &quot;PingFang SC&quot;; font-size: 11px; text-rendering: geometricprecision; fill: rgb(255, 255, 255);">Relu</text><title>conv1_act</title></g><path class="node border" d="M5,0h26.385000228881836a5,5 0 0 1 5,5v10.319999694824219a5,5 0 0 1 -5,5h-26.385000228881836a5,5 0 0 1 -5,-5v-10.319999694824219a5,5 0 0 1 5,-5z" style="stroke: rgb(51, 51, 51); fill: none; stroke-width: 1px;"/></g></g><g id="node-name-conv1_act_scaling" class="node graph-node" style="opacity: 1;" transform="translate(50,286.2599973678589)"><g transform="translate(-50,-20.81999969482422)"><g class="node-item node-item-type" transform="translate(0,0)"><path d="M5,0h90a5,5 0 0 1 5,5v15.319999694824219a0,0 0 0 1 0,0h-100a0,0 0 0 1 0,0v-15.319999694824219a5,5 0 0 1 5,-5z" style="stroke: rgb(0, 0, 0); fill: rgb(0, 0, 0); stroke-width: 0px;"/><text x="6" y="14.230000495910645" style="font-family: -apple-system, BlinkMacSystemFont, &quot;Segoe WPC&quot;, &quot;Segoe UI&quot;, &quot;Ubuntu&quot;, &quot;Droid Sans&quot;, sans-serif, &quot;PingFang SC&quot;; font-size: 11px; text-rendering: geometricprecision; fill: rgb(255, 255, 255);">BitShift</text><title>conv1_act_scaling</title></g><g class="node-attribute" transform="translate(0,20.31999969482422)"><path d="M0,0h100a0,0 0 0 1 0,0v16.320000648498535a5,5 0 0 1 -5,5h-90a5,5 0 0 1 -5,-5v-16.320000648498535a0,0 0 0 1 0,0z" style="stroke: rgb(0, 0, 0); fill: rgb(255, 255, 255); stroke-width: 0px;"/><text id="initializer-conv1_act_scaling_s" xml:space="preserve" x="6" y="14.440000534057617" style="font-family: -apple-system, BlinkMacSystemFont, &quot;Segoe WPC&quot;, &quot;Segoe UI&quot;, &quot;Ubuntu&quot;, &quot;Droid Sans&quot;, sans-serif, &quot;PingFang SC&quot;; font-size: 9px; font-weight: normal; text-rendering: geometricprecision;"><title>uint32[1]</title><tspan style="font-weight: bold;">Y</tspan><tspan>〈1〉</tspan></text><line class="node" x1="0" x2="100" y1="0" y2="0" style="stroke: rgb(51, 51, 51); fill: none; stroke-width: 1px;"/></g><path class="node border" d="M5,0h90a5,5 0 0 1 5,5v31.640000343322754a5,5 0 0 1 -5,5h-90a5,5 0 0 1 -5,-5v-31.640000343322754a5,5 0 0 1 5,-5z" style="stroke: rgb(51, 51, 51); fill: none; stroke-width: 1px;"/></g></g><g id="node-name-conv1_act_scaling_icast" class="node graph-node" style="opacity: 1;" transform="translate(50,235.27999782562256)"><g transform="translate(-17.94499969482422,-10.15999984741211)"><g class="node-item node-item-type" transform="translate(0,0)"><path d="M5,0h25.889999389648438a5,5 0 0 1 5,5v10.319999694824219a5,5 0 0 1 -5,5h-25.889999389648438a5,5 0 0 1 -5,-5v-10.319999694824219a5,5 0 0 1 5,-5z" style="stroke: rgb(0, 0, 0); fill: rgb(0, 0, 0); stroke-width: 0px;"/><text x="6" y="14.230000495910645" style="font-family: -apple-system, BlinkMacSystemFont, &quot;Segoe WPC&quot;, &quot;Segoe UI&quot;, &quot;Ubuntu&quot;, &quot;Droid Sans&quot;, sans-serif, &quot;PingFang SC&quot;; font-size: 11px; text-rendering: geometricprecision; fill: rgb(255, 255, 255);">Cast</text><title>conv1_act_scaling_icast</title></g><path class="node border" d="M5,0h25.889999389648438a5,5 0 0 1 5,5v10.319999694824219a5,5 0 0 1 -5,5h-25.889999389648438a5,5 0 0 1 -5,-5v-10.319999694824219a5,5 0 0 1 5,-5z" style="stroke: rgb(51, 51, 51); fill: none; stroke-width: 1px;"/></g></g><g id="node-name-conv1_act_scaling_clip_ocast" class="node graph-node" style="opacity: 1;" transform="translate(50,337.2399969100952)"><g transform="translate(-17.94499969482422,-10.15999984741211)"><g class="node-item node-item-type" transform="translate(0,0)"><path d="M5,0h25.889999389648438a5,5 0 0 1 5,5v10.319999694824219a5,5 0 0 1 -5,5h-25.889999389648438a5,5 0 0 1 -5,-5v-10.319999694824219a5,5 0 0 1 5,-5z" style="stroke: rgb(0, 0, 0); fill: rgb(0, 0, 0); stroke-width: 0px;"/><text x="6" y="14.230000495910645" style="font-family: -apple-system, BlinkMacSystemFont, &quot;Segoe WPC&quot;, &quot;Segoe UI&quot;, &quot;Ubuntu&quot;, &quot;Droid Sans&quot;, sans-serif, &quot;PingFang SC&quot;; font-size: 11px; text-rendering: geometricprecision; fill: rgb(255, 255, 255);">Cast</text><title>conv1_act_scaling_clip_ocast</title></g><path class="node border" d="M5,0h25.889999389648438a5,5 0 0 1 5,5v10.319999694824219a5,5 0 0 1 -5,5h-25.889999389648438a5,5 0 0 1 -5,-5v-10.319999694824219a5,5 0 0 1 5,-5z" style="stroke: rgb(51, 51, 51); fill: none; stroke-width: 1px;"/></g></g><g id="node-name-conv1_act_scaling_clip" class="node graph-node" style="opacity: 1;" transform="translate(50,395.87999629974365)"><g transform="translate(-50,-28.479999542236328)"><g class="node-item node-item-type" transform="translate(0,0)"><path d="M5,0h90a5,5 0 0 1 5,5v15.319999694824219a0,0 0 0 1 0,0h-100a0,0 0 0 1 0,0v-15.319999694824219a5,5 0 0 1 5,-5z" style="stroke: rgb(0, 0, 0); fill: rgb(0, 0, 0); stroke-width: 0px;"/><text x="6" y="14.230000495910645" style="font-family: -apple-system, BlinkMacSystemFont, &quot;Segoe WPC&quot;, &quot;Segoe UI&quot;, &quot;Ubuntu&quot;, &quot;Droid Sans&quot;, sans-serif, &quot;PingFang SC&quot;; font-size: 11px; text-rendering: geometricprecision; fill: rgb(255, 255, 255);">Clip</text><title>conv1_act_scaling_clip</title></g><g class="node-attribute" transform="translate(0,20.31999969482422)"><path d="M0,0h100a0,0 0 0 1 0,0v31.64000129699707a5,5 0 0 1 -5,5h-90a5,5 0 0 1 -5,-5v-31.64000129699707a0,0 0 0 1 0,0z" style="stroke: rgb(0, 0, 0); fill: rgb(255, 255, 255); stroke-width: 0px;"/><text id="initializer-conv1_act_scaling_clip_min" xml:space="preserve" x="6" y="14.440000534057617" style="font-family: -apple-system, BlinkMacSystemFont, &quot;Segoe WPC&quot;, &quot;Segoe UI&quot;, &quot;Ubuntu&quot;, &quot;Droid Sans&quot;, sans-serif, &quot;PingFang SC&quot;; font-size: 9px; font-weight: normal; text-rendering: geometricprecision;"><title>int32[1]</title><tspan style="font-weight: bold;">min</tspan><tspan>〈1〉</tspan></text><text id="initializer-conv1_act_scaling_clip_max" xml:space="preserve" x="6" y="29.760001182556152" style="font-family: -apple-system, BlinkMacSystemFont, &quot;Segoe WPC&quot;, &quot;Segoe UI&quot;, &quot;Ubuntu&quot;, &quot;Droid Sans&quot;, sans-serif, &quot;PingFang SC&quot;; font-size: 9px; font-weight: normal; text-rendering: geometricprecision;"><title>int32[1]</title><tspan style="font-weight: bold;">max</tspan><tspan>〈1〉</tspan></text><line class="node" x1="0" x2="100" y1="0" y2="0" style="stroke: rgb(51, 51, 51); fill: none; stroke-width: 1px;"/></g><path class="node border" d="M5,0h90a5,5 0 0 1 5,5v46.96000099182129a5,5 0 0 1 -5,5h-90a5,5 0 0 1 -5,-5v-46.96000099182129a5,5 0 0 1 5,-5z" style="stroke: rgb(51, 51, 51); fill: none; stroke-width: 1px;"/></g></g><g id="node-name-conv1_ocast" class="node graph-node" style="opacity: 1;" transform="translate(50,454.5199956893921)"><g transform="translate(-17.94499969482422,-10.15999984741211)"><g class="node-item node-item-type" transform="translate(0,0)"><path d="M5,0h25.889999389648438a5,5 0 0 1 5,5v10.319999694824219a5,5 0 0 1 -5,5h-25.889999389648438a5,5 0 0 1 -5,-5v-10.319999694824219a5,5 0 0 1 5,-5z" style="stroke: rgb(0, 0, 0); fill: rgb(0, 0, 0); stroke-width: 0px;"/><text x="6" y="14.230000495910645" style="font-family: -apple-system, BlinkMacSystemFont, &quot;Segoe WPC&quot;, &quot;Segoe UI&quot;, &quot;Ubuntu&quot;, &quot;Droid Sans&quot;, sans-serif, &quot;PingFang SC&quot;; font-size: 11px; text-rendering: geometricprecision; fill: rgb(255, 255, 255);">Cast</text><title>conv1_ocast</title></g><path class="node border" d="M5,0h25.889999389648438a5,5 0 0 1 5,5v10.319999694824219a5,5 0 0 1 -5,5h-25.889999389648438a5,5 0 0 1 -5,-5v-10.319999694824219a5,5 0 0 1 5,-5z" style="stroke: rgb(51, 51, 51); fill: none; stroke-width: 1px;"/></g></g><g id="node-name-fc1" class="node graph-node" style="opacity: 1;" transform="translate(50,505.4999952316284)"><g transform="translate(-50,-20.81999969482422)"><g class="node-item node-item-type" transform="translate(0,0)"><path d="M5,0h90a5,5 0 0 1 5,5v15.319999694824219a0,0 0 0 1 0,0h-100a0,0 0 0 1 0,0v-15.319999694824219a5,5 0 0 1 5,-5z" style="stroke: rgb(0, 0, 0); fill: rgb(0, 0, 0); stroke-width: 0px;"/><text x="6" y="14.230000495910645" style="font-family: -apple-system, BlinkMacSystemFont, &quot;Segoe WPC&quot;, &quot;Segoe UI&quot;, &quot;Ubuntu&quot;, &quot;Droid Sans&quot;, sans-serif, &quot;PingFang SC&quot;; font-size: 11px; text-rendering: geometricprecision; fill: rgb(255, 255, 255);">MatMulInteger</text><title>fc1</title></g><g class="node-attribute" transform="translate(0,20.31999969482422)"><path d="M0,0h100a0,0 0 0 1 0,0v16.320000648498535a5,5 0 0 1 -5,5h-90a5,5 0 0 1 -5,-5v-16.320000648498535a0,0 0 0 1 0,0z" style="stroke: rgb(0, 0, 0); fill: rgb(255, 255, 255); stroke-width: 0px;"/><text id="initializer-fc1_w" xml:space="preserve" x="6" y="14.440000534057617" style="font-family: -apple-system, BlinkMacSystemFont, &quot;Segoe WPC&quot;, &quot;Segoe UI&quot;, &quot;Ubuntu&quot;, &quot;Droid Sans&quot;, sans-serif, &quot;PingFang SC&quot;; font-size: 9px; font-weight: normal; text-rendering: geometricprecision;"><title>int8[10,4704]</title><tspan style="font-weight: bold;">B</tspan><tspan>〈10×4704〉</tspan></text><line class="node" x1="0" x2="100" y1="0" y2="0" style="stroke: rgb(51, 51, 51); fill: none; stroke-width: 1px;"/></g><path class="node border" d="M5,0h90a5,5 0 0 1 5,5v31.640000343322754a5,5 0 0 1 -5,5h-90a5,5 0 0 1 -5,-5v-31.640000343322754a5,5 0 0 1 5,-5z" style="stroke: rgb(51, 51, 51); fill: none; stroke-width: 1px;"/></g></g><g id="node-name-fc1_bias" class="node graph-node" style="opacity: 1;" transform="translate(50,567.1399946212769)"><g transform="translate(-50,-20.81999969482422)"><g class="node-item node-item-type" transform="translate(0,0)"><path d="M5,0h90a5,5 0 0 1 5,5v15.319999694824219a0,0 0 0 1 0,0h-100a0,0 0 0 1 0,0v-15.319999694824219a5,5 0 0 1 5,-5z" style="stroke: rgb(0, 0, 0); fill: rgb(0, 0, 0); stroke-width: 0px;"/><text x="6" y="14.230000495910645" style="font-family: -apple-system, BlinkMacSystemFont, &quot;Segoe WPC&quot;, &quot;Segoe UI&quot;, &quot;Ubuntu&quot;, &quot;Droid Sans&quot;, sans-serif, &quot;PingFang SC&quot;; font-size: 11px; text-rendering: geometricprecision; fill: rgb(255, 255, 255);">Add</text><title>fc1_bias</title></g><g class="node-attribute" transform="translate(0,20.31999969482422)"><path d="M0,0h100a0,0 0 0 1 0,0v16.320000648498535a5,5 0 0 1 -5,5h-90a5,5 0 0 1 -5,-5v-16.320000648498535a0,0 0 0 1 0,0z" style="stroke: rgb(0, 0, 0); fill: rgb(255, 255, 255); stroke-width: 0px;"/><text id="initializer-fc1_b" xml:space="preserve" x="6" y="14.440000534057617" style="font-family: -apple-system, BlinkMacSystemFont, &quot;Segoe WPC&quot;, &quot;Segoe UI&quot;, &quot;Ubuntu&quot;, &quot;Droid Sans&quot;, sans-serif, &quot;PingFang SC&quot;; font-size: 9px; font-weight: normal; text-rendering: geometricprecision;"><title>int32[10]</title><tspan style="font-weight: bold;">B</tspan><tspan>〈10〉</tspan></text><line class="node" x1="0" x2="100" y1="0" y2="0" style="stroke: rgb(51, 51, 51); fill: none; stroke-width: 1px;"/></g><path class="node border" d="M5,0h90a5,5 0 0 1 5,5v31.640000343322754a5,5 0 0 1 -5,5h-90a5,5 0 0 1 -5,-5v-31.640000343322754a5,5 0 0 1 5,-5z" style="stroke: rgb(51, 51, 51); fill: none; stroke-width: 1px;"/></g></g><g id="node-name-fc1_act" class="node graph-node" style="opacity: 1;" transform="translate(50,669.0999937057495)"><g transform="translate(-50,-20.81999969482422)"><g class="node-item node-item-type" transform="translate(0,0)"><path d="M5,0h90a5,5 0 0 1 5,5v15.319999694824219a0,0 0 0 1 0,0h-100a0,0 0 0 1 0,0v-15.319999694824219a5,5 0 0 1 5,-5z" style="stroke: rgb(0, 0, 0); fill: rgb(0, 0, 0); stroke-width: 0px;"/><text x="6" y="14.230000495910645" style="font-family: -apple-system, BlinkMacSystemFont, &quot;Segoe WPC&quot;, &quot;Segoe UI&quot;, &quot;Ubuntu&quot;, &quot;Droid Sans&quot;, sans-serif, &quot;PingFang SC&quot;; font-size: 11px; text-rendering: geometricprecision; fill: rgb(255, 255, 255);">BitShift</text><title>fc1_act</title></g><g class="node-attribute" transform="translate(0,20.31999969482422)"><path d="M0,0h100a0,0 0 0 1 0,0v16.320000648498535a5,5 0 0 1 -5,5h-90a5,5 0 0 1 -5,-5v-16.320000648498535a0,0 0 0 1 0,0z" style="stroke: rgb(0, 0, 0); fill: rgb(255, 255, 255); stroke-width: 0px;"/><text id="initializer-fc1_act_s" xml:space="preserve" x="6" y="14.440000534057617" style="font-family: -apple-system, BlinkMacSystemFont, &quot;Segoe WPC&quot;, &quot;Segoe UI&quot;, &quot;Ubuntu&quot;, &quot;Droid Sans&quot;, sans-serif, &quot;PingFang SC&quot;; font-size: 9px; font-weight: normal; text-rendering: geometricprecision;"><title>uint32[1]</title><tspan style="font-weight: bold;">Y</tspan><tspan>〈1〉</tspan></text><line class="node" x1="0" x2="100" y1="0" y2="0" style="stroke: rgb(51, 51, 51); fill: none; stroke-width: 1px;"/></g><path class="node border" d="M5,0h90a5,5 0 0 1 5,5v31.640000343322754a5,5 0 0 1 -5,5h-90a5,5 0 0 1 -5,-5v-31.640000343322754a5,5 0 0 1 5,-5z" style="stroke: rgb(51, 51, 51); fill: none; stroke-width: 1px;"/></g></g><g id="node-name-fc1_act_icast" class="node graph-node" style="opacity: 1;" transform="translate(50,618.1199941635132)"><g transform="translate(-17.94499969482422,-10.15999984741211)"><g class="node-item node-item-type" transform="translate(0,0)"><path d="M5,0h25.889999389648438a5,5 0 0 1 5,5v10.319999694824219a5,5 0 0 1 -5,5h-25.889999389648438a5,5 0 0 1 -5,-5v-10.319999694824219a5,5 0 0 1 5,-5z" style="stroke: rgb(0, 0, 0); fill: rgb(0, 0, 0); stroke-width: 0px;"/><text x="6" y="14.230000495910645" style="font-family: -apple-system, BlinkMacSystemFont, &quot;Segoe WPC&quot;, &quot;Segoe UI&quot;, &quot;Ubuntu&quot;, &quot;Droid Sans&quot;, sans-serif, &quot;PingFang SC&quot;; font-size: 11px; text-rendering: geometricprecision; fill: rgb(255, 255, 255);">Cast</text><title>fc1_act_icast</title></g><path class="node border" d="M5,0h25.889999389648438a5,5 0 0 1 5,5v10.319999694824219a5,5 0 0 1 -5,5h-25.889999389648438a5,5 0 0 1 -5,-5v-10.319999694824219a5,5 0 0 1 5,-5z" style="stroke: rgb(51, 51, 51); fill: none; stroke-width: 1px;"/></g></g><g id="node-name-fc1_act_clip_ocast" class="node graph-node" style="opacity: 1;" transform="translate(50,720.0799932479858)"><g transform="translate(-17.94499969482422,-10.15999984741211)"><g class="node-item node-item-type" transform="translate(0,0)"><path d="M5,0h25.889999389648438a5,5 0 0 1 5,5v10.319999694824219a5,5 0 0 1 -5,5h-25.889999389648438a5,5 0 0 1 -5,-5v-10.319999694824219a5,5 0 0 1 5,-5z" style="stroke: rgb(0, 0, 0); fill: rgb(0, 0, 0); stroke-width: 0px;"/><text x="6" y="14.230000495910645" style="font-family: -apple-system, BlinkMacSystemFont, &quot;Segoe WPC&quot;, &quot;Segoe UI&quot;, &quot;Ubuntu&quot;, &quot;Droid Sans&quot;, sans-serif, &quot;PingFang SC&quot;; font-size: 11px; text-rendering: geometricprecision; fill: rgb(255, 255, 255);">Cast</text><title>fc1_act_clip_ocast</title></g><path class="node border" d="M5,0h25.889999389648438a5,5 0 0 1 5,5v10.319999694824219a5,5 0 0 1 -5,5h-25.889999389648438a5,5 0 0 1 -5,-5v-10.319999694824219a5,5 0 0 1 5,-5z" style="stroke: rgb(51, 51, 51); fill: none; stroke-width: 1px;"/></g></g><g id="node-name-fc1_act_clip" class="node graph-node" style="opacity: 1;" transform="translate(50,778.7199926376343)"><g transform="translate(-50,-28.479999542236328)"><g class="node-item node-item-type" transform="translate(0,0)"><path d="M5,0h90a5,5 0 0 1 5,5v15.319999694824219a0,0 0 0 1 0,0h-100a0,0 0 0 1 0,0v-15.319999694824219a5,5 0 0 1 5,-5z" style="stroke: rgb(0, 0, 0); fill: rgb(0, 0, 0); stroke-width: 0px;"/><text x="6" y="14.230000495910645" style="font-family: -apple-system, BlinkMacSystemFont, &quot;Segoe WPC&quot;, &quot;Segoe UI&quot;, &quot;Ubuntu&quot;, &quot;Droid Sans&quot;, sans-serif, &quot;PingFang SC&quot;; font-size: 11px; text-rendering: geometricprecision; fill: rgb(255, 255, 255);">Clip</text><title>fc1_act_clip</title></g><g class="node-attribute" transform="translate(0,20.31999969482422)"><path d="M0,0h100a0,0 0 0 1 0,0v31.64000129699707a5,5 0 0 1 -5,5h-90a5,5 0 0 1 -5,-5v-31.64000129699707a0,0 0 0 1 0,0z" style="stroke: rgb(0, 0, 0); fill: rgb(255, 255, 255); stroke-width: 0px;"/><text id="initializer-fc1_act_clip_min" xml:space="preserve" x="6" y="14.440000534057617" style="font-family: -apple-system, BlinkMacSystemFont, &quot;Segoe WPC&quot;, &quot;Segoe UI&quot;, &quot;Ubuntu&quot;, &quot;Droid Sans&quot;, sans-serif, &quot;PingFang SC&quot;; font-size: 9px; font-weight: normal; text-rendering: geometricprecision;"><title>int32[1]</title><tspan style="font-weight: bold;">min</tspan><tspan>〈1〉</tspan></text><text id="initializer-fc1_act_clip_max" xml:space="preserve" x="6" y="29.760001182556152" style="font-family: -apple-system, BlinkMacSystemFont, &quot;Segoe WPC&quot;, &quot;Segoe UI&quot;, &quot;Ubuntu&quot;, &quot;Droid Sans&quot;, sans-serif, &quot;PingFang SC&quot;; font-size: 9px; font-weight: normal; text-rendering: geometricprecision;"><title>int32[1]</title><tspan style="font-weight: bold;">max</tspan><tspan>〈1〉</tspan></text><line class="node" x1="0" x2="100" y1="0" y2="0" style="stroke: rgb(51, 51, 51); fill: none; stroke-width: 1px;"/></g><path class="node border" d="M5,0h90a5,5 0 0 1 5,5v46.96000099182129a5,5 0 0 1 -5,5h-90a5,5 0 0 1 -5,-5v-46.96000099182129a5,5 0 0 1 5,-5z" style="stroke: rgb(51, 51, 51); fill: none; stroke-width: 1px;"/></g></g><g id="node-name-fc1_ocast" class="node graph-node" style="opacity: 1;" transform="translate(50,837.3599920272827)"><g transform="translate(-17.94499969482422,-10.15999984741211)"><g class="node-item node-item-type" transform="translate(0,0)"><path d="M5,0h25.889999389648438a5,5 0 0 1 5,5v10.319999694824219a5,5 0 0 1 -5,5h-25.889999389648438a5,5 0 0 1 -5,-5v-10.319999694824219a5,5 0 0 1 5,-5z" style="stroke: rgb(0, 0, 0); fill: rgb(0, 0, 0); stroke-width: 0px;"/><text x="6" y="14.230000495910645" style="font-family: -apple-system, BlinkMacSystemFont, &quot;Segoe WPC&quot;, &quot;Segoe UI&quot;, &quot;Ubuntu&quot;, &quot;Droid Sans&quot;, sans-serif, &quot;PingFang SC&quot;; font-size: 11px; text-rendering: geometricprecision; fill: rgb(255, 255, 255);">Cast</text><title>fc1_ocast</title></g><path class="node border" d="M5,0h25.889999389648438a5,5 0 0 1 5,5v10.319999694824219a5,5 0 0 1 -5,5h-25.889999389648438a5,5 0 0 1 -5,-5v-10.319999694824219a5,5 0 0 1 5,-5z" style="stroke: rgb(51, 51, 51); fill: none; stroke-width: 1px;"/></g></g><g id="node-name-softmax" class="node graph-node" style="opacity: 1;" transform="translate(50,917.9999914169312)"><g transform="translate(-27.921998977661133,-10.15999984741211)"><g class="node-item node-item-type node-item-type-activation" transform="translate(0,0)"><path d="M5,0h45.843997955322266a5,5 0 0 1 5,5v10.319999694824219a5,5 0 0 1 -5,5h-45.843997955322266a5,5 0 0 1 -5,-5v-10.319999694824219a5,5 0 0 1 5,-5z" style="stroke: rgb(0, 0, 0); fill: rgb(112, 41, 33); stroke-width: 0px;"/><text x="6" y="14.230000495910645" style="font-family: -apple-system, BlinkMacSystemFont, &quot;Segoe WPC&quot;, &quot;Segoe UI&quot;, &quot;Ubuntu&quot;, &quot;Droid Sans&quot;, sans-serif, &quot;PingFang SC&quot;; font-size: 11px; text-rendering: geometricprecision; fill: rgb(255, 255, 255);">Softmax</text><title>softmax</title></g><path class="node border" d="M5,0h45.843997955322266a5,5 0 0 1 5,5v10.319999694824219a5,5 0 0 1 -5,5h-45.843997955322266a5,5 0 0 1 -5,-5v-10.319999694824219a5,5 0 0 1 5,-5z" style="stroke: rgb(51, 51, 51); fill: none; stroke-width: 1px;"/></g></g><g id="node-name-fc1_icast" class="node graph-node" style="opacity: 1;" transform="translate(50,877.6799917221069)"><g transform="translate(-17.94499969482422,-10.15999984741211)"><g class="node-item node-item-type" transform="translate(0,0)"><path d="M5,0h25.889999389648438a5,5 0 0 1 5,5v10.319999694824219a5,5 0 0 1 -5,5h-25.889999389648438a5,5 0 0 1 -5,-5v-10.319999694824219a5,5 0 0 1 5,-5z" style="stroke: rgb(0, 0, 0); fill: rgb(0, 0, 0); stroke-width: 0px;"/><text x="6" y="14.230000495910645" style="font-family: -apple-system, BlinkMacSystemFont, &quot;Segoe WPC&quot;, &quot;Segoe UI&quot;, &quot;Ubuntu&quot;, &quot;Droid Sans&quot;, sans-serif, &quot;PingFang SC&quot;; font-size: 11px; text-rendering: geometricprecision; fill: rgb(255, 255, 255);">Cast</text><title>fc1_icast</title></g><path class="node border" d="M5,0h25.889999389648438a5,5 0 0 1 5,5v10.319999694824219a5,5 0 0 1 -5,5h-25.889999389648438a5,5 0 0 1 -5,-5v-10.319999694824219a5,5 0 0 1 5,-5z" style="stroke: rgb(51, 51, 51); fill: none; stroke-width: 1px;"/></g></g><g id="input-name-env" class="node graph-input" style="opacity: 1;" transform="translate(50,10.15999984741211)"><g transform="translate(-15.904500007629395,-10.15999984741211)"><g class="node-item graph-item-input" transform="translate(0,0)"><path d="M5,0h21.80900001525879a5,5 0 0 1 5,5v10.319999694824219a5,5 0 0 1 -5,5h-21.80900001525879a5,5 0 0 1 -5,-5v-10.319999694824219a5,5 0 0 1 5,-5z" style="stroke: rgb(0, 0, 0); fill: rgb(238, 238, 238); stroke-width: 0px;"/><text x="6" y="14.230000495910645" style="font-family: -apple-system, BlinkMacSystemFont, &quot;Segoe WPC&quot;, &quot;Segoe UI&quot;, &quot;Ubuntu&quot;, &quot;Droid Sans&quot;, sans-serif, &quot;PingFang SC&quot;; font-size: 11px; text-rendering: geometricprecision;">env</text><title>int8[batch,1,32,32]</title></g><path class="node border" d="M5,0h21.80900001525879a5,5 0 0 1 5,5v10.319999694824219a5,5 0 0 1 -5,5h-21.80900001525879a5,5 0 0 1 -5,-5v-10.319999694824219a5,5 0 0 1 5,-5z" style="stroke: rgb(51, 51, 51); fill: none; stroke-width: 1px;"/></g></g><g class="node" style="opacity: 1;" transform="translate(50,979.5199909210205)"><g transform="translate(-27.448999404907227,-10.15999984741211)"><g class="node-item graph-item-output" transform="translate(0,0)"><path d="M5,0h44.89799880981445a5,5 0 0 1 5,5v10.319999694824219a5,5 0 0 1 -5,5h-44.89799880981445a5,5 0 0 1 -5,-5v-10.319999694824219a5,5 0 0 1 5,-5z" style="stroke: rgb(0, 0, 0); fill: rgb(238, 238, 238); stroke-width: 0px;"/><text x="6" y="14.230000495910645" style="font-family: -apple-system, BlinkMacSystemFont, &quot;Segoe WPC&quot;, &quot;Segoe UI&quot;, &quot;Ubuntu&quot;, &quot;Droid Sans&quot;, sans-serif, &quot;PingFang SC&quot;; font-size: 11px; text-rendering: geometricprecision;">softmax</text><title>int8[batch,10,1,1]</title></g><path class="node border" d="M5,0h44.89799880981445a5,5 0 0 1 5,5v10.319999694824219a5,5 0 0 1 -5,5h-44.89799880981445a5,5 0 0 1 -5,-5v-10.319999694824219a5,5 0 0 1 5,-5z" style="stroke: rgb(51, 51, 51); fill: none; stroke-width: 1px;"/></g></g></g></svg>
