<svg xmlns="http://www.w3.org/2000/svg" id="export" class="canvas" preserveAspectRatio="xMidYMid meet" style="position: static; margin: auto; width: 327px; height: 908px;" viewBox="0 0 140 721" width="140" height="721"><rect id="background" fill="#fff" pointer-events="all" width="140" height="721"/><g id="clusters" class="clusters"/><g id="edge-paths" class="edge-paths"><defs><marker id="arrowhead-vee" viewBox="0 0 10 10" refX="9" refY="5" markerUnits="strokeWidth" markerWidth="8" markerHeight="6" orient="auto" style="fill: rgb(0, 0, 0);"><path d="M 0 0 L 10 5 L 0 10 L 4 5 z" style="stroke-width: 1px;"/></marker><marker id="arrowhead-vee-select" viewBox="0 0 10 10" refX="9" refY="5" markerUnits="strokeWidth" markerWidth="8" markerHeight="6" orient="auto" style="fill: rgb(238, 0, 0);"><path d="M 0 0 L 10 5 L 0 10 L 4 5 z" style="stroke-width: 1px;"/></marker></defs><path id="edge-env" class="edge-path" d="M50,20.31999969482422L50,23.75333301226298C50,27.18666632970174,50,34.05333296457926,50,40.91999959945679C50,47.78666623433431,50,54.65333286921183,50,58.086666186650596L50,61.519999504089355" style="stroke: rgb(0, 0, 0); stroke-width: 1px; fill: none; marker-end: url(&quot;#arrowhead-vee&quot;);"/><path id="edge-conv1_bias" class="edge-path" d="M50,103.1599988937378L50,104.82666556040446C50,106.49333222707112,50,109.82666556040446,50,113.1599988937378C50,116.49333222707112,50,119.82666556040446,50,121.49333222707112L50,123.1599988937378" style="stroke: rgb(0, 0, 0); stroke-width: 1px; fill: none; marker-end: url(&quot;#arrowhead-vee&quot;);"/><path id="edge-conv1_act" class="edge-path" d="M50,164.79999828338623L50,166.4666649500529C50,168.13333161671957,50,171.4666649500529,50,174.79999828338623C50,178.13333161671957,50,181.4666649500529,50,183.13333161671957L50,184.79999828338623" style="stroke: rgb(0, 0, 0); stroke-width: 1px; fill: none; marker-end: url(&quot;#arrowhead-vee&quot;);"/><path id="edge-conv1_act_scaling" class="edge-path" d="M50,205.11999797821045L50,206.7866646448771C50,208.4533313115438,50,211.7866646448771,50,215.11999797821045C50,218.4533313115438,50,221.7866646448771,50,223.4533313115438L50,225.11999797821045" style="stroke: rgb(0, 0, 0); stroke-width: 1px; fill: none; marker-end: url(&quot;#arrowhead-vee&quot;);"/><path id="edge-conv1_act_scaling_clip" class="edge-path" d="M50,266.7599973678589L50,268.4266640345256C50,270.0933307011922,50,273.4266640345256,50,276.7599973678589C50,280.0933307011922,50,283.4266640345256,50,285.0933307011922L50,286.7599973678589" style="stroke: rgb(0, 0, 0); stroke-width: 1px; fill: none; marker-end: url(&quot;#arrowhead-vee&quot;);"/><path id="edge-conv1" class="edge-path" d="M50,343.71999645233154L50,345.38666311899823C50,347.05332978566486,50,350.38666311899823,50,353.71999645233154C50,357.05332978566486,50,360.38666311899823,50,362.05332978566486L50,363.71999645233154" style="stroke: rgb(0, 0, 0); stroke-width: 1px; fill: none; marker-end: url(&quot;#arrowhead-vee&quot;);"/><path id="edge-fc1_bias" class="edge-path" d="M50,405.35999584198L50,407.02666250864667C50,408.6933291753133,50,412.02666250864667,50,415.35999584198C50,418.6933291753133,50,422.02666250864667,50,423.6933291753133L50,425.35999584198" style="stroke: rgb(0, 0, 0); stroke-width: 1px; fill: none; marker-end: url(&quot;#arrowhead-vee&quot;);"/><path id="edge-fc1_act" class="edge-path" d="M50,466.9999952316284L50,468.6666618982951C50,470.33332856496173,50,473.6666618982951,50,476.9999952316284C50,480.33332856496173,50,483.6666618982951,50,485.33332856496173L50,486.9999952316284" style="stroke: rgb(0, 0, 0); stroke-width: 1px; fill: none; marker-end: url(&quot;#arrowhead-vee&quot;);"/><path id="edge-fc1_act_clip" class="edge-path" d="M50,528.6399946212769L50,530.3066612879435C50,531.9733279546102,50,535.3066612879435,50,538.6399946212769C50,541.9733279546102,50,545.3066612879435,50,546.9733279546102L50,548.6399946212769" style="stroke: rgb(0, 0, 0); stroke-width: 1px; fill: none; marker-end: url(&quot;#arrowhead-vee&quot;);"/><path id="edge-fc1" class="edge-path" d="M50,605.5999937057495L50,607.2666603724161C50,608.9333270390829,50,612.2666603724161,50,615.5999937057495C50,618.9333270390829,50,622.2666603724161,50,623.9333270390829L50,625.5999937057495" style="stroke: rgb(0, 0, 0); stroke-width: 1px; fill: none; marker-end: url(&quot;#arrowhead-vee&quot;);"/><path id="edge-softmax" class="edge-path" d="M50,645.9199934005737L50,649.3533267180125C50,652.7866600354513,50,659.6533266703287,50,666.5199933052063C50,673.3866599400839,50,680.2533265749613,50,683.6866598924001L50,687.1199932098389" style="stroke: rgb(0, 0, 0); stroke-width: 1px; fill: none; marker-end: url(&quot;#arrowhead-vee&quot;);"/></g><g id="edge-labels" class="edge-labels"><g style="opacity: 1;" class="edge-label" id="edge-label-edge-env" transform="translate(90.23999786376953,40.91999959945679)"><g transform="translate(-35.23999786376953,-5.599999904632568)"><text style="font-family: -apple-system, BlinkMacSystemFont, &quot;Segoe WPC&quot;, &quot;Segoe UI&quot;, &quot;Ubuntu&quot;, &quot;Droid Sans&quot;, sans-serif, &quot;PingFang SC&quot;; font-size: 10px;"><tspan xml:space="preserve" dy="1em" x="1">batch×1×32×32</tspan></text></g></g><g style="opacity: 1;" class="edge-label" id="edge-label-edge-softmax" transform="translate(87.42000198364258,666.5199933052063)"><g transform="translate(-32.42000198364258,-5.599999904632568)"><text style="font-family: -apple-system, BlinkMacSystemFont, &quot;Segoe WPC&quot;, &quot;Segoe UI&quot;, &quot;Ubuntu&quot;, &quot;Droid Sans&quot;, sans-serif, &quot;PingFang SC&quot;; font-size: 10px;"><tspan xml:space="preserve" dy="1em" x="1">batch×10×1×1</tspan></text></g></g></g><g id="nodes" class="nodes"><g id="node-name-conv1" class="node graph-node" style="opacity: 1;" transform="translate(50,82.33999919891357)"><g transform="translate(-50,-20.81999969482422)"><g class="node-item node-item-type node-item-type-layer" transform="translate(0,0)"><path d="M5,0h90a5,5 0 0 1 5,5v15.319999694824219a0,0 0 0 1 0,0h-100a0,0 0 0 1 0,0v-15.319999694824219a5,5 0 0 1 5,-5z" style="stroke: rgb(0, 0, 0); fill: rgb(51, 85, 136); stroke-width: 0px;"/><text x="6" y="14.230000495910645" style="font-family: -apple-system, BlinkMacSystemFont, &quot;Segoe WPC&quot;, &quot;Segoe UI&quot;, &quot;Ubuntu&quot;, &quot;Droid Sans&quot;, sans-serif, &quot;PingFang SC&quot;; font-size: 11px; text-rendering: geometricprecision; fill: rgb(255, 255, 255);">ConvInteger</text><title>conv1</title></g><g class="node-attribute" transform="translate(0,20.31999969482422)"><path d="M0,0h100a0,0 0 0 1 0,0v16.320000648498535a5,5 0 0 1 -5,5h-90a5,5 0 0 1 -5,-5v-16.320000648498535a0,0 0 0 1 0,0z" style="stroke: rgb(0, 0, 0); fill: rgb(255, 255, 255); stroke-width: 0px;"/><text id="initializer-conv1_w" xml:space="preserve" x="6" y="14.440000534057617" style="font-family: -apple-system, BlinkMacSystemFont, &quot;Segoe WPC&quot;, &quot;Segoe UI&quot;, &quot;Ubuntu&quot;, &quot;Droid Sans&quot;, sans-serif, &quot;PingFang SC&quot;; font-size: 9px; font-weight: normal; text-rendering: geometricprecision;"><title>int8[6,1,5,5]</title><tspan style="font-weight: bold;">w</tspan><tspan>〈6×1×5×5〉</tspan></text><line class="node" x1="0" x2="100" y1="0" y2="0" style="stroke: rgb(51, 51, 51); fill: none; stroke-width: 1px;"/></g><path class="node border" d="M5,0h90a5,5 0 0 1 5,5v31.640000343322754a5,5 0 0 1 -5,5h-90a5,5 0 0 1 -5,-5v-31.640000343322754a5,5 0 0 1 5,-5z" style="stroke: rgb(51, 51, 51); fill: none; stroke-width: 1px;"/></g></g><g id="node-name-conv1_bias" class="node graph-node" style="opacity: 1;" transform="translate(50,143.979998588562)"><g transform="translate(-50,-20.81999969482422)"><g class="node-item node-item-type" transform="translate(0,0)"><path d="M5,0h90a5,5 0 0 1 5,5v15.319999694824219a0,0 0 0 1 0,0h-100a0,0 0 0 1 0,0v-15.319999694824219a5,5 0 0 1 5,-5z" style="stroke: rgb(0, 0, 0); fill: rgb(0, 0, 0); stroke-width: 0px;"/><text x="6" y="14.230000495910645" style="font-family: -apple-system, BlinkMacSystemFont, &quot;Segoe WPC&quot;, &quot;Segoe UI&quot;, &quot;Ubuntu&quot;, &quot;Droid Sans&quot;, sans-serif, &quot;PingFang SC&quot;; font-size: 11px; text-rendering: geometricprecision; fill: rgb(255, 255, 255);">Add</text><title>conv1_bias</title></g><g class="node-attribute" transform="translate(0,20.31999969482422)"><path d="M0,0h100a0,0 0 0 1 0,0v16.320000648498535a5,5 0 0 1 -5,5h-90a5,5 0 0 1 -5,-5v-16.320000648498535a0,0 0 0 1 0,0z" style="stroke: rgb(0, 0, 0); fill: rgb(255, 255, 255); stroke-width: 0px;"/><text id="initializer-conv1_b" xml:space="preserve" x="6" y="14.440000534057617" style="font-family: -apple-system, BlinkMacSystemFont, &quot;Segoe WPC&quot;, &quot;Segoe UI&quot;, &quot;Ubuntu&quot;, &quot;Droid Sans&quot;, sans-serif, &quot;PingFang SC&quot;; font-size: 9px; font-weight: normal; text-rendering: geometricprecision;"><title>int32[6]</title><tspan style="font-weight: bold;">B</tspan><tspan>〈6〉</tspan></text><line class="node" x1="0" x2="100" y1="0" y2="0" style="stroke: rgb(51, 51, 51); fill: none; stroke-width: 1px;"/></g><path class="node border" d="M5,0h90a5,5 0 0 1 5,5v31.640000343322754a5,5 0 0 1 -5,5h-90a5,5 0 0 1 -5,-5v-31.640000343322754a5,5 0 0 1 5,-5z" style="stroke: rgb(51, 51, 51); fill: none; stroke-width: 1px;"/></g></g><g id="node-name-conv1_act" class="node graph-node" style="opacity: 1;" transform="translate(50,194.95999813079834)"><g transform="translate(-18.192501068115234,-10.15999984741211)"><g class="node-item node-item-type node-item-type-activation" transform="translate(0,0)"><path d="M5,0h26.385000228881836a5,5 0 0 1 5,5v10.319999694824219a5,5 0 0 1 -5,5h-26.385000228881836a5,5 0 0 1 -5,-5v-10.319999694824219a5,5 0 0 1 5,-5z" style="stroke: rgb(0, 0, 0); fill: rgb(112, 41, 33); stroke-width: 0px;"/><text x="6" y="14.230000495910645" style="font-family: -apple-system, BlinkMacSystemFont, &quot;Segoe WPC&quot;, &quot;Segoe UI&quot;, &quot;Ubuntu&quot;, &quot;Droid Sans&quot;, sans-serif, &quot;PingFang SC&quot;; font-size: 11px; text-rendering: geometricprecision; fill: rgb(255, 255, 255);">Relu</text><title>conv1_act</title></g><path class="node border" d="M5,0h26.385000228881836a5,5 0 0 1 5,5v10.319999694824219a5,5 0 0 1 -5,5h-26.385000228881836a5,5 0 0 1 -5,-5v-10.319999694824219a5,5 0 0 1 5,-5z" style="stroke: rgb(51, 51, 51); fill: none; stroke-width: 1px;"/></g></g><g id="node-name-conv1_act_scaling" class="node graph-node" style="opacity: 1;" transform="translate(50,245.93999767303467)"><g transform="translate(-50,-20.81999969482422)"><g class="node-item node-item-type" transform="translate(0,0)"><path d="M5,0h90a5,5 0 0 1 5,5v15.319999694824219a0,0 0 0 1 0,0h-100a0,0 0 0 1 0,0v-15.319999694824219a5,5 0 0 1 5,-5z" style="stroke: rgb(0, 0, 0); fill: rgb(0, 0, 0); stroke-width: 0px;"/><text x="6" y="14.230000495910645" style="font-family: -apple-system, BlinkMacSystemFont, &quot;Segoe WPC&quot;, &quot;Segoe UI&quot;, &quot;Ubuntu&quot;, &quot;Droid Sans&quot;, sans-serif, &quot;PingFang SC&quot;; font-size: 11px; text-rendering: geometricprecision; fill: rgb(255, 255, 255);">BitShift</text><title>conv1_act_scaling</title></g><g class="node-attribute" transform="translate(0,20.31999969482422)"><path d="M0,0h100a0,0 0 0 1 0,0v16.320000648498535a5,5 0 0 1 -5,5h-90a5,5 0 0 1 -5,-5v-16.320000648498535a0,0 0 0 1 0,0z" style="stroke: rgb(0, 0, 0); fill: rgb(255, 255, 255); stroke-width: 0px;"/><text id="initializer-conv1_act_scaling_s" xml:space="preserve" x="6" y="14.440000534057617" style="font-family: -apple-system, BlinkMacSystemFont, &quot;Segoe WPC&quot;, &quot;Segoe UI&quot;, &quot;Ubuntu&quot;, &quot;Droid Sans&quot;, sans-serif, &quot;PingFang SC&quot;; font-size: 9px; font-weight: normal; text-rendering: geometricprecision;"><title>uint32[1]</title><tspan style="font-weight: bold;">Y</tspan><tspan>〈1〉</tspan></text><line class="node" x1="0" x2="100" y1="0" y2="0" style="stroke: rgb(51, 51, 51); fill: none; stroke-width: 1px;"/></g><path class="node border" d="M5,0h90a5,5 0 0 1 5,5v31.640000343322754a5,5 0 0 1 -5,5h-90a5,5 0 0 1 -5,-5v-31.640000343322754a5,5 0 0 1 5,-5z" style="stroke: rgb(51, 51, 51); fill: none; stroke-width: 1px;"/></g></g><g id="node-name-conv1_act_scaling_clip" class="node graph-node" style="opacity: 1;" transform="translate(50,315.2399969100952)"><g transform="translate(-50,-28.479999542236328)"><g class="node-item node-item-type" transform="translate(0,0)"><path d="M5,0h90a5,5 0 0 1 5,5v15.319999694824219a0,0 0 0 1 0,0h-100a0,0 0 0 1 0,0v-15.319999694824219a5,5 0 0 1 5,-5z" style="stroke: rgb(0, 0, 0); fill: rgb(0, 0, 0); stroke-width: 0px;"/><text x="6" y="14.230000495910645" style="font-family: -apple-system, BlinkMacSystemFont, &quot;Segoe WPC&quot;, &quot;Segoe UI&quot;, &quot;Ubuntu&quot;, &quot;Droid Sans&quot;, sans-serif, &quot;PingFang SC&quot;; font-size: 11px; text-rendering: geometricprecision; fill: rgb(255, 255, 255);">Clip</text><title>conv1_act_scaling_clip</title></g><g class="node-attribute" transform="translate(0,20.31999969482422)"><path d="M0,0h100a0,0 0 0 1 0,0v31.64000129699707a5,5 0 0 1 -5,5h-90a5,5 0 0 1 -5,-5v-31.64000129699707a0,0 0 0 1 0,0z" style="stroke: rgb(0, 0, 0); fill: rgb(255, 255, 255); stroke-width: 0px;"/><text id="initializer-conv1_act_scaling_clip_min" xml:space="preserve" x="6" y="14.440000534057617" style="font-family: -apple-system, BlinkMacSystemFont, &quot;Segoe WPC&quot;, &quot;Segoe UI&quot;, &quot;Ubuntu&quot;, &quot;Droid Sans&quot;, sans-serif, &quot;PingFang SC&quot;; font-size: 9px; font-weight: normal; text-rendering: geometricprecision;"><title>int32[1]</title><tspan style="font-weight: bold;">min</tspan><tspan>〈1〉</tspan></text><text id="initializer-conv1_act_scaling_clip_max" xml:space="preserve" x="6" y="29.760001182556152" style="font-family: -apple-system, BlinkMacSystemFont, &quot;Segoe WPC&quot;, &quot;Segoe UI&quot;, &quot;Ubuntu&quot;, &quot;Droid Sans&quot;, sans-serif, &quot;PingFang SC&quot;; font-size: 9px; font-weight: normal; text-rendering: geometricprecision;"><title>int32[1]</title><tspan style="font-weight: bold;">max</tspan><tspan>〈1〉</tspan></text><line class="node" x1="0" x2="100" y1="0" y2="0" style="stroke: rgb(51, 51, 51); fill: none; stroke-width: 1px;"/></g><path class="node border" d="M5,0h90a5,5 0 0 1 5,5v46.96000099182129a5,5 0 0 1 -5,5h-90a5,5 0 0 1 -5,-5v-46.96000099182129a5,5 0 0 1 5,-5z" style="stroke: rgb(51, 51, 51); fill: none; stroke-width: 1px;"/></g></g><g id="node-name-fc1" class="node graph-node" style="opacity: 1;" transform="translate(50,384.53999614715576)"><g transform="translate(-50,-20.81999969482422)"><g class="node-item node-item-type" transform="translate(0,0)"><path d="M5,0h90a5,5 0 0 1 5,5v15.319999694824219a0,0 0 0 1 0,0h-100a0,0 0 0 1 0,0v-15.319999694824219a5,5 0 0 1 5,-5z" style="stroke: rgb(0, 0, 0); fill: rgb(0, 0, 0); stroke-width: 0px;"/><text x="6" y="14.230000495910645" style="font-family: -apple-system, BlinkMacSystemFont, &quot;Segoe WPC&quot;, &quot;Segoe UI&quot;, &quot;Ubuntu&quot;, &quot;Droid Sans&quot;, sans-serif, &quot;PingFang SC&quot;; font-size: 11px; text-rendering: geometricprecision; fill: rgb(255, 255, 255);">MatMulInteger</text><title>fc1</title></g><g class="node-attribute" transform="translate(0,20.31999969482422)"><path d="M0,0h100a0,0 0 0 1 0,0v16.320000648498535a5,5 0 0 1 -5,5h-90a5,5 0 0 1 -5,-5v-16.320000648498535a0,0 0 0 1 0,0z" style="stroke: rgb(0, 0, 0); fill: rgb(255, 255, 255); stroke-width: 0px;"/><text id="initializer-fc1_w" xml:space="preserve" x="6" y="14.440000534057617" style="font-family: -apple-system, BlinkMacSystemFont, &quot;Segoe WPC&quot;, &quot;Segoe UI&quot;, &quot;Ubuntu&quot;, &quot;Droid Sans&quot;, sans-serif, &quot;PingFang SC&quot;; font-size: 9px; font-weight: normal; text-rendering: geometricprecision;"><title>int8[10,4704]</title><tspan style="font-weight: bold;">B</tspan><tspan>〈10×4704〉</tspan></text><line class="node" x1="0" x2="100" y1="0" y2="0" style="stroke: rgb(51, 51, 51); fill: none; stroke-width: 1px;"/></g><path class="node border" d="M5,0h90a5,5 0 0 1 5,5v31.640000343322754a5,5 0 0 1 -5,5h-90a5,5 0 0 1 -5,-5v-31.640000343322754a5,5 0 0 1 5,-5z" style="stroke: rgb(51, 51, 51); fill: none; stroke-width: 1px;"/></g></g><g id="node-name-fc1_bias" class="node graph-node" style="opacity: 1;" transform="translate(50,446.1799955368042)"><g transform="translate(-50,-20.81999969482422)"><g class="node-item node-item-type" transform="translate(0,0)"><path d="M5,0h90a5,5 0 0 1 5,5v15.319999694824219a0,0 0 0 1 0,0h-100a0,0 0 0 1 0,0v-15.319999694824219a5,5 0 0 1 5,-5z" style="stroke: rgb(0, 0, 0); fill: rgb(0, 0, 0); stroke-width: 0px;"/><text x="6" y="14.230000495910645" style="font-family: -apple-system, BlinkMacSystemFont, &quot;Segoe WPC&quot;, &quot;Segoe UI&quot;, &quot;Ubuntu&quot;, &quot;Droid Sans&quot;, sans-serif, &quot;PingFang SC&quot;; font-size: 11px; text-rendering: geometricprecision; fill: rgb(255, 255, 255);">Add</text><title>fc1_bias</title></g><g class="node-attribute" transform="translate(0,20.31999969482422)"><path d="M0,0h100a0,0 0 0 1 0,0v16.320000648498535a5,5 0 0 1 -5,5h-90a5,5 0 0 1 -5,-5v-16.320000648498535a0,0 0 0 1 0,0z" style="stroke: rgb(0, 0, 0); fill: rgb(255, 255, 255); stroke-width: 0px;"/><text id="initializer-fc1_b" xml:space="preserve" x="6" y="14.440000534057617" style="font-family: -apple-system, BlinkMacSystemFont, &quot;Segoe WPC&quot;, &quot;Segoe UI&quot;, &quot;Ubuntu&quot;, &quot;Droid Sans&quot;, sans-serif, &quot;PingFang SC&quot;; font-size: 9px; font-weight: normal; text-rendering: geometricprecision;"><title>int32[10]</title><tspan style="font-weight: bold;">B</tspan><tspan>〈10〉</tspan></text><line class="node" x1="0" x2="100" y1="0" y2="0" style="stroke: rgb(51, 51, 51); fill: none; stroke-width: 1px;"/></g><path class="node border" d="M5,0h90a5,5 0 0 1 5,5v31.640000343322754a5,5 0 0 1 -5,5h-90a5,5 0 0 1 -5,-5v-31.640000343322754a5,5 0 0 1 5,-5z" style="stroke: rgb(51, 51, 51); fill: none; stroke-width: 1px;"/></g></g><g id="node-name-fc1_act" class="node graph-node" style="opacity: 1;" transform="translate(50,507.81999492645264)"><g transform="translate(-50,-20.81999969482422)"><g class="node-item node-item-type" transform="translate(0,0)"><path d="M5,0h90a5,5 0 0 1 5,5v15.319999694824219a0,0 0 0 1 0,0h-100a0,0 0 0 1 0,0v-15.319999694824219a5,5 0 0 1 5,-5z" style="stroke: rgb(0, 0, 0); fill: rgb(0, 0, 0); stroke-width: 0px;"/><text x="6" y="14.230000495910645" style="font-family: -apple-system, BlinkMacSystemFont, &quot;Segoe WPC&quot;, &quot;Segoe UI&quot;, &quot;Ubuntu&quot;, &quot;Droid Sans&quot;, sans-serif, &quot;PingFang SC&quot;; font-size: 11px; text-rendering: geometricprecision; fill: rgb(255, 255, 255);">BitShift</text><title>fc1_act</title></g><g class="node-attribute" transform="translate(0,20.31999969482422)"><path d="M0,0h100a0,0 0 0 1 0,0v16.320000648498535a5,5 0 0 1 -5,5h-90a5,5 0 0 1 -5,-5v-16.320000648498535a0,0 0 0 1 0,0z" style="stroke: rgb(0, 0, 0); fill: rgb(255, 255, 255); stroke-width: 0px;"/><text id="initializer-fc1_act_s" xml:space="preserve" x="6" y="14.440000534057617" style="font-family: -apple-system, BlinkMacSystemFont, &quot;Segoe WPC&quot;, &quot;Segoe UI&quot;, &quot;Ubuntu&quot;, &quot;Droid Sans&quot;, sans-serif, &quot;PingFang SC&quot;; font-size: 9px; font-weight: normal; text-rendering: geometricprecision;"><title>uint32[1]</title><tspan style="font-weight: bold;">Y</tspan><tspan>〈1〉</tspan></text><line class="node" x1="0" x2="100" y1="0" y2="0" style="stroke: rgb(51, 51, 51); fill: none; stroke-width: 1px;"/></g><path class="node border" d="M5,0h90a5,5 0 0 1 5,5v31.640000343322754a5,5 0 0 1 -5,5h-90a5,5 0 0 1 -5,-5v-31.640000343322754a5,5 0 0 1 5,-5z" style="stroke: rgb(51, 51, 51); fill: none; stroke-width: 1px;"/></g></g><g id="node-name-fc1_act_clip" class="node graph-node" style="opacity: 1;" transform="translate(50,577.1199941635132)"><g transform="translate(-50,-28.479999542236328)"><g class="node-item node-item-type" transform="translate(0,0)"><path d="M5,0h90a5,5 0 0 1 5,5v15.319999694824219a0,0 0 0 1 0,0h-100a0,0 0 0 1 0,0v-15.319999694824219a5,5 0 0 1 5,-5z" style="stroke: rgb(0, 0, 0); fill: rgb(0, 0, 0); stroke-width: 0px;"/><text x="6" y="14.230000495910645" style="font-family: -apple-system, BlinkMacSystemFont, &quot;Segoe WPC&quot;, &quot;Segoe UI&quot;, &quot;Ubuntu&quot;, &quot;Droid Sans&quot;, sans-serif, &quot;PingFang SC&quot;; font-size: 11px; text-rendering: geometricprecision; fill: rgb(255, 255, 255);">Clip</text><title>fc1_act_clip</title></g><g class="node-attribute" transform="translate(0,20.31999969482422)"><path d="M0,0h100a0,0 0 0 1 0,0v31.64000129699707a5,5 0 0 1 -5,5h-90a5,5 0 0 1 -5,-5v-31.64000129699707a0,0 0 0 1 0,0z" style="stroke: rgb(0, 0, 0); fill: rgb(255, 255, 255); stroke-width: 0px;"/><text id="initializer-fc1_act_clip_min" xml:space="preserve" x="6" y="14.440000534057617" style="font-family: -apple-system, BlinkMacSystemFont, &quot;Segoe WPC&quot;, &quot;Segoe UI&quot;, &quot;Ubuntu&quot;, &quot;Droid Sans&quot;, sans-serif, &quot;PingFang SC&quot;; font-size: 9px; font-weight: normal; text-rendering: geometricprecision;"><title>int32[1]</title><tspan style="font-weight: bold;">min</tspan><tspan>〈1〉</tspan></text><text id="initializer-fc1_act_clip_max" xml:space="preserve" x="6" y="29.760001182556152" style="font-family: -apple-system, BlinkMacSystemFont, &quot;Segoe WPC&quot;, &quot;Segoe UI&quot;, &quot;Ubuntu&quot;, &quot;Droid Sans&quot;, sans-serif, &quot;PingFang SC&quot;; font-size: 9px; font-weight: normal; text-rendering: geometricprecision;"><title>int32[1]</title><tspan style="font-weight: bold;">max</tspan><tspan>〈1〉</tspan></text><line class="node" x1="0" x2="100" y1="0" y2="0" style="stroke: rgb(51, 51, 51); fill: none; stroke-width: 1px;"/></g><path class="node border" d="M5,0h90a5,5 0 0 1 5,5v46.96000099182129a5,5 0 0 1 -5,5h-90a5,5 0 0 1 -5,-5v-46.96000099182129a5,5 0 0 1 5,-5z" style="stroke: rgb(51, 51, 51); fill: none; stroke-width: 1px;"/></g></g><g id="node-name-softmax" class="node graph-node" style="opacity: 1;" transform="translate(50,635.7599935531616)"><g transform="translate(-27.921998977661133,-10.15999984741211)"><g class="node-item node-item-type node-item-type-activation" transform="translate(0,0)"><path d="M5,0h45.843997955322266a5,5 0 0 1 5,5v10.319999694824219a5,5 0 0 1 -5,5h-45.843997955322266a5,5 0 0 1 -5,-5v-10.319999694824219a5,5 0 0 1 5,-5z" style="stroke: rgb(0, 0, 0); fill: rgb(112, 41, 33); stroke-width: 0px;"/><text x="6" y="14.230000495910645" style="font-family: -apple-system, BlinkMacSystemFont, &quot;Segoe WPC&quot;, &quot;Segoe UI&quot;, &quot;Ubuntu&quot;, &quot;Droid Sans&quot;, sans-serif, &quot;PingFang SC&quot;; font-size: 11px; text-rendering: geometricprecision; fill: rgb(255, 255, 255);">Softmax</text><title>softmax</title></g><path class="node border" d="M5,0h45.843997955322266a5,5 0 0 1 5,5v10.319999694824219a5,5 0 0 1 -5,5h-45.843997955322266a5,5 0 0 1 -5,-5v-10.319999694824219a5,5 0 0 1 5,-5z" style="stroke: rgb(51, 51, 51); fill: none; stroke-width: 1px;"/></g></g><g id="input-name-env" class="node graph-input" style="opacity: 1;" transform="translate(50,10.15999984741211)"><g transform="translate(-15.904500007629395,-10.15999984741211)"><g class="node-item graph-item-input" transform="translate(0,0)"><path d="M5,0h21.80900001525879a5,5 0 0 1 5,5v10.319999694824219a5,5 0 0 1 -5,5h-21.80900001525879a5,5 0 0 1 -5,-5v-10.319999694824219a5,5 0 0 1 5,-5z" style="stroke: rgb(0, 0, 0); fill: rgb(238, 238, 238); stroke-width: 0px;"/><text x="6" y="14.230000495910645" style="font-family: -apple-system, BlinkMacSystemFont, &quot;Segoe WPC&quot;, &quot;Segoe UI&quot;, &quot;Ubuntu&quot;, &quot;Droid Sans&quot;, sans-serif, &quot;PingFang SC&quot;; font-size: 11px; text-rendering: geometricprecision;">env</text><title>int8[batch,1,32,32]</title></g><path class="node border" d="M5,0h21.80900001525879a5,5 0 0 1 5,5v10.319999694824219a5,5 0 0 1 -5,5h-21.80900001525879a5,5 0 0 1 -5,-5v-10.319999694824219a5,5 0 0 1 5,-5z" style="stroke: rgb(51, 51, 51); fill: none; stroke-width: 1px;"/></g></g><g class="node" style="opacity: 1;" transform="translate(50,697.279993057251)"><g transform="translate(-27.448999404907227,-10.15999984741211)"><g class="node-item graph-item-output" transform="translate(0,0)"><path d="M5,0h44.89799880981445a5,5 0 0 1 5,5v10.319999694824219a5,5 0 0 1 -5,5h-44.89799880981445a5,5 0 0 1 -5,-5v-10.319999694824219a5,5 0 0 1 5,-5z" style="stroke: rgb(0, 0, 0); fill: rgb(238, 238, 238); stroke-width: 0px;"/><text x="6" y="14.230000495910645" style="font-family: -apple-system, BlinkMacSystemFont, &quot;Segoe WPC&quot;, &quot;Segoe UI&quot;, &quot;Ubuntu&quot;, &quot;Droid Sans&quot;, sans-serif, &quot;PingFang SC&quot;; font-size: 11px; text-rendering: geometricprecision;">softmax</text><title>int8[batch,10,1,1]</title></g><path class="node border" d="M5,0h44.89799880981445a5,5 0 0 1 5,5v10.319999694824219a5,5 0 0 1 -5,5h-44.89799880981445a5,5 0 0 1 -5,-5v-10.319999694824219a5,5 0 0 1 5,-5z" style="stroke: rgb(51, 51, 51); fill: none; stroke-width: 1px;"/></g></g></g></svg>
